# OBJ
# COMPAS
# version: 2.1.1
# precision: 3
# V F E: 938 863 1750

o Mesh 0
v -0.016 -0.002 0.021
v -0.006 0.015 0.021
v -0.020 0.000 0.021
v -0.010 0.017 0.021
v -0.020 0.000 0.021
v -0.010 0.017 0.021
v -0.020 0.000 0.019
v -0.010 0.017 0.019
v -0.020 0.000 0.019
v -0.010 0.017 0.019
v -0.017 -0.002 0.019
v -0.007 0.015 0.019
v -0.017 -0.002 0.019
v -0.007 0.015 0.019
v -0.016 -0.002 0.021
v -0.006 0.015 0.021
v -0.016 -0.002 0.021
v -0.020 0.000 0.021
v -0.020 0.000 0.019
v -0.017 -0.002 0.019
v -0.006 0.015 0.021
v -0.010 0.017 0.021
v -0.010 0.017 0.019
v -0.007 0.015 0.019
v -0.010 0.013 -0.019
v 0.010 0.013 -0.019
v -0.010 0.017 -0.019
v 0.010 0.017 -0.019
v -0.010 0.017 -0.019
v 0.010 0.017 -0.019
v -0.010 0.017 -0.021
v 0.010 0.017 -0.021
v -0.010 0.017 -0.021
v 0.010 0.017 -0.021
v -0.010 0.013 -0.021
v 0.010 0.013 -0.021
v -0.010 0.013 -0.021
v -0.010 0.013 -0.019
v -0.010 0.017 -0.019
v -0.010 0.017 -0.021
v 0.010 0.013 -0.019
v 0.010 0.017 -0.019
v 0.010 0.017 -0.021
v 0.010 0.013 -0.021
v -0.006 0.013 -0.021
v 0.010 0.009 -0.007
v -0.010 0.009 -0.007
v 0.010 0.009 0.000
v -0.010 0.009 0.000
v 0.005 0.009 0.000
v -0.005 0.009 0.000
v -0.010 -0.006 0.000
v -0.007 -0.008 0.000
v -0.010 -0.008 0.000
v 0.010 -0.008 0.000
v -0.010 -0.008 0.000
v 0.010 -0.008 -0.007
v -0.010 -0.008 -0.007
v 0.005 -0.008 0.000
v -0.007 -0.008 0.000
v 0.010 -0.008 -0.007
v -0.010 -0.008 -0.007
v 0.010 -0.011 -0.010
v -0.010 -0.011 -0.010
v 0.010 -0.012 -0.014
v -0.010 -0.012 -0.014
v 0.010 -0.013 -0.018
v -0.010 -0.013 -0.018
v 0.010 -0.012 -0.022
v -0.010 -0.012 -0.022
v 0.010 -0.010 -0.026
v -0.010 -0.010 -0.026
v 0.010 -0.007 -0.028
v -0.010 -0.007 -0.028
v 0.010 -0.004 -0.030
v -0.010 -0.004 -0.030
v 0.010 0.000 -0.031
v -0.010 0.000 -0.031
v 0.010 0.004 -0.030
v -0.010 0.004 -0.030
v 0.010 0.008 -0.028
v -0.010 0.008 -0.028
v 0.010 0.011 -0.025
v -0.010 0.011 -0.025
v 0.010 0.013 -0.022
v -0.010 0.013 -0.022
v 0.010 0.013 -0.014
v -0.010 0.013 -0.014
v 0.010 0.011 -0.010
v -0.010 0.011 -0.010
v 0.010 0.009 -0.007
v -0.010 0.009 -0.007
v 0.010 0.009 -0.007
v 0.010 0.009 0.000
v 0.010 -0.008 0.000
v 0.010 -0.008 -0.007
v 0.010 -0.011 -0.010
v 0.010 -0.012 -0.014
v 0.010 -0.013 -0.018
v 0.010 -0.012 -0.022
v 0.010 -0.010 -0.026
v 0.010 -0.007 -0.028
v 0.010 -0.004 -0.030
v 0.010 0.000 -0.031
v 0.010 0.004 -0.030
v 0.010 0.008 -0.028
v 0.010 0.011 -0.025
v 0.010 0.013 -0.022
v 0.010 0.013 -0.014
v 0.010 0.011 -0.010
v 0.010 -0.004 -0.009
v 0.010 -0.004 -0.003
v 0.010 0.006 -0.003
v 0.010 0.006 -0.010
v 0.010 0.008 -0.012
v 0.010 0.010 -0.015
v 0.010 0.010 -0.021
v 0.010 0.008 -0.023
v 0.010 0.006 -0.026
v 0.010 0.003 -0.027
v 0.010 0.000 -0.027
v 0.010 -0.003 -0.027
v 0.010 -0.006 -0.025
v 0.010 -0.008 -0.023
v 0.010 -0.009 -0.020
v 0.010 -0.009 -0.017
v 0.010 -0.009 -0.014
v 0.010 -0.007 -0.011
v 0.010 0.002 0.000
v 0.010 0.006 0.000
v -0.010 0.009 -0.007
v -0.010 0.009 0.000
v -0.010 -0.008 0.000
v -0.010 -0.008 -0.007
v -0.010 -0.011 -0.010
v -0.010 -0.012 -0.014
v -0.010 -0.013 -0.018
v -0.010 -0.012 -0.022
v -0.010 -0.010 -0.026
v -0.010 -0.007 -0.028
v -0.010 -0.004 -0.030
v -0.010 0.000 -0.031
v -0.010 0.004 -0.030
v -0.010 0.008 -0.028
v -0.010 0.011 -0.025
v -0.010 0.013 -0.022
v -0.010 0.013 -0.014
v -0.010 0.011 -0.010
v -0.010 -0.004 -0.009
v -0.010 -0.004 -0.003
v -0.010 0.006 -0.003
v -0.010 0.006 -0.010
v -0.010 0.008 -0.012
v -0.010 0.010 -0.015
v -0.010 0.010 -0.021
v -0.010 0.008 -0.023
v -0.010 0.006 -0.026
v -0.010 0.003 -0.027
v -0.010 0.000 -0.027
v -0.010 -0.003 -0.027
v -0.010 -0.006 -0.025
v -0.010 -0.008 -0.023
v -0.010 -0.009 -0.020
v -0.010 -0.009 -0.017
v -0.010 -0.009 -0.014
v -0.010 -0.007 -0.011
v -0.010 -0.006 0.000
v -0.010 -0.000 0.000
v 0.010 0.006 -0.010
v -0.010 0.006 -0.010
v 0.010 0.006 -0.003
v -0.010 0.006 -0.003
v 0.000 0.006 -0.010
v 0.010 0.006 -0.003
v -0.010 0.006 -0.003
v 0.010 -0.004 -0.003
v -0.010 -0.004 -0.003
v 0.010 -0.004 -0.003
v -0.010 -0.004 -0.003
v 0.010 -0.004 -0.009
v -0.010 -0.004 -0.009
v 0.000 -0.004 -0.009
v 0.010 -0.004 -0.009
v 0.000 -0.004 -0.009
v -0.010 -0.004 -0.009
v 0.010 -0.007 -0.011
v -0.010 -0.007 -0.011
v 0.010 -0.009 -0.014
v -0.010 -0.009 -0.014
v 0.010 -0.009 -0.017
v -0.010 -0.009 -0.017
v 0.010 -0.009 -0.020
v -0.010 -0.009 -0.020
v 0.010 -0.008 -0.023
v -0.010 -0.008 -0.023
v 0.010 -0.006 -0.025
v -0.010 -0.006 -0.025
v 0.010 -0.003 -0.027
v -0.010 -0.003 -0.027
v 0.010 0.000 -0.027
v -0.010 0.000 -0.027
v 0.010 0.003 -0.027
v -0.010 0.003 -0.027
v 0.010 0.006 -0.026
v -0.010 0.006 -0.026
v 0.010 0.008 -0.023
v -0.010 0.008 -0.023
v 0.010 0.010 -0.021
v -0.010 0.010 -0.021
v 0.010 0.010 -0.015
v -0.010 0.010 -0.015
v 0.010 0.008 -0.012
v -0.010 0.008 -0.012
v 0.010 0.006 -0.010
v 0.000 0.006 -0.010
v -0.010 0.006 -0.010
v 0.000 -0.009 -0.014
v 0.000 -0.009 -0.017
v 0.000 -0.009 -0.020
v 0.000 -0.008 -0.023
v 0.000 -0.003 -0.027
v 0.000 -0.006 -0.025
v 0.000 0.000 -0.027
v 0.000 0.003 -0.027
v 0.000 0.006 -0.026
v 0.000 0.008 -0.023
v 0.000 0.010 -0.021
v 0.000 0.008 -0.012
v 0.000 0.010 -0.015
v -0.002 0.013 0.007
v -0.013 -0.004 0.007
v -0.002 0.013 0.000
v -0.013 -0.004 0.000
v -0.005 0.009 0.000
v -0.010 -0.000 0.000
v -0.010 -0.000 0.000
v -0.013 -0.004 0.000
v -0.010 -0.006 0.000
v 0.012 0.005 0.000
v 0.002 -0.013 0.000
v 0.012 0.005 0.007
v 0.002 -0.013 0.007
v 0.010 0.002 0.000
v 0.005 -0.008 0.000
v 0.012 0.005 0.007
v 0.002 -0.013 0.007
v 0.014 0.003 0.010
v 0.004 -0.014 0.010
v 0.016 0.003 0.014
v 0.006 -0.015 0.014
v 0.016 0.002 0.018
v 0.006 -0.015 0.018
v 0.016 0.003 0.022
v 0.005 -0.015 0.022
v 0.014 0.004 0.026
v 0.004 -0.014 0.026
v 0.011 0.005 0.028
v 0.001 -0.012 0.028
v 0.008 0.007 0.030
v -0.002 -0.010 0.030
v 0.005 0.009 0.031
v -0.005 -0.009 0.031
v 0.001 0.011 0.030
v -0.009 -0.006 0.030
v -0.002 0.013 0.028
v -0.012 -0.005 0.028
v -0.005 0.014 0.025
v -0.015 -0.003 0.025
v -0.006 0.015 0.022
v -0.016 -0.002 0.022
v -0.006 0.015 0.014
v -0.016 -0.002 0.014
v -0.005 0.014 0.010
v -0.015 -0.003 0.010
v -0.002 0.013 0.007
v -0.013 -0.004 0.007
v -0.002 0.013 0.007
v -0.002 0.013 0.000
v 0.012 0.005 0.000
v 0.012 0.005 0.007
v 0.014 0.003 0.010
v 0.016 0.003 0.014
v 0.016 0.002 0.018
v 0.016 0.003 0.022
v 0.014 0.004 0.026
v 0.011 0.005 0.028
v 0.008 0.007 0.030
v 0.005 0.009 0.031
v 0.001 0.011 0.030
v -0.002 0.013 0.028
v -0.005 0.014 0.025
v -0.006 0.015 0.022
v -0.006 0.015 0.014
v -0.005 0.014 0.010
v 0.009 0.006 0.009
v 0.009 0.006 0.003
v -0.000 0.012 0.003
v -0.000 0.012 0.010
v -0.002 0.013 0.012
v -0.003 0.014 0.015
v -0.003 0.014 0.021
v -0.002 0.013 0.023
v -0.000 0.012 0.026
v 0.002 0.010 0.027
v 0.005 0.009 0.027
v 0.008 0.007 0.027
v 0.010 0.006 0.025
v 0.012 0.005 0.023
v 0.013 0.004 0.020
v 0.013 0.004 0.017
v 0.012 0.004 0.014
v 0.011 0.005 0.011
v 0.010 0.006 0.000
v 0.005 0.009 0.000
v -0.013 -0.004 0.007
v -0.013 -0.004 0.000
v 0.002 -0.013 0.000
v 0.002 -0.013 0.007
v 0.004 -0.014 0.010
v 0.006 -0.015 0.014
v 0.006 -0.015 0.018
v 0.005 -0.015 0.022
v 0.004 -0.014 0.026
v 0.001 -0.012 0.028
v -0.002 -0.010 0.030
v -0.005 -0.009 0.031
v -0.009 -0.006 0.030
v -0.012 -0.005 0.028
v -0.015 -0.003 0.025
v -0.016 -0.002 0.022
v -0.016 -0.002 0.014
v -0.015 -0.003 0.010
v -0.001 -0.011 0.009
v -0.001 -0.011 0.003
v -0.010 -0.006 0.003
v -0.010 -0.006 0.010
v -0.012 -0.005 0.012
v -0.013 -0.004 0.015
v -0.013 -0.004 0.021
v -0.012 -0.005 0.023
v -0.010 -0.006 0.026
v -0.008 -0.007 0.027
v -0.005 -0.009 0.027
v -0.002 -0.010 0.027
v -0.000 -0.012 0.025
v 0.002 -0.013 0.023
v 0.003 -0.013 0.020
v 0.003 -0.013 0.017
v 0.002 -0.013 0.014
v 0.001 -0.012 0.011
v -0.007 -0.008 0.000
v -0.010 -0.006 0.000
v -0.000 0.012 0.010
v -0.005 0.003 0.010
v -0.010 -0.006 0.010
v -0.002 0.013 0.012
v -0.012 -0.005 0.012
v -0.003 0.014 0.015
v -0.013 -0.004 0.015
v -0.003 0.014 0.021
v -0.013 -0.004 0.021
v -0.002 0.013 0.023
v -0.012 -0.005 0.023
v -0.000 0.012 0.026
v -0.010 -0.006 0.026
v 0.002 0.010 0.027
v -0.008 -0.007 0.027
v 0.005 0.009 0.027
v -0.005 -0.009 0.027
v 0.008 0.007 0.027
v -0.002 -0.010 0.027
v 0.010 0.006 0.025
v -0.000 -0.012 0.025
v 0.012 0.005 0.023
v 0.002 -0.013 0.023
v 0.013 0.004 0.020
v 0.003 -0.013 0.020
v 0.013 0.004 0.017
v 0.003 -0.013 0.017
v 0.012 0.004 0.014
v 0.002 -0.013 0.014
v 0.011 0.005 0.011
v 0.001 -0.012 0.011
v 0.009 0.006 0.009
v 0.004 -0.002 0.009
v -0.001 -0.011 0.009
v -0.008 0.005 0.015
v -0.008 0.005 0.021
v -0.007 0.004 0.023
v -0.003 0.001 0.027
v -0.005 0.003 0.026
v 0.000 0.000 0.027
v 0.003 -0.002 0.027
v 0.005 -0.003 0.025
v 0.007 -0.004 0.023
v 0.008 -0.004 0.020
v 0.008 -0.005 0.017
v 0.006 -0.003 0.011
v 0.007 -0.004 0.014
v 0.009 0.006 0.009
v -0.001 -0.011 0.009
v 0.009 0.006 0.003
v -0.001 -0.011 0.003
v 0.004 -0.002 0.009
v 0.009 0.006 0.003
v -0.001 -0.011 0.003
v -0.000 0.012 0.003
v -0.010 -0.006 0.003
v -0.000 0.012 0.003
v -0.010 -0.006 0.003
v -0.000 0.012 0.010
v -0.010 -0.006 0.010
v -0.005 0.003 0.010
v 0.010 0.009 0.000
v 0.005 0.009 0.000
v 0.010 0.006 0.000
v 0.010 0.002 0.000
v 0.010 -0.008 0.000
v 0.005 -0.008 0.000
v -0.005 0.009 0.000
v -0.010 0.009 0.000
v -0.010 -0.000 0.000
v 0.010 0.006 0.000
v 0.012 0.005 0.000
v 0.010 0.002 0.000
v -0.007 -0.008 0.000
v 0.005 -0.008 0.000
v 0.002 -0.013 0.000
v -0.002 0.013 0.000
v -0.005 0.009 0.000
v 0.005 0.009 0.000
v -0.010 0.013 -0.019
v -0.010 0.011 -0.019
v -0.010 0.010 -0.019
v -0.010 0.010 -0.019
v 0.000 0.010 -0.019
v 0.010 0.013 -0.019
v 0.010 0.011 -0.019
v 0.010 0.010 -0.019
v 0.010 0.010 -0.019
v -0.010 0.014 -0.016
v -0.010 0.014 -0.016
v -0.010 0.011 -0.016
v -0.010 0.010 -0.016
v -0.010 0.010 -0.016
v 0.000 0.010 -0.016
v 0.010 0.014 -0.016
v 0.010 0.014 -0.016
v 0.010 0.011 -0.016
v 0.010 0.010 -0.016
v 0.010 0.010 -0.016
v -0.010 0.013 -0.019
v -0.010 0.011 -0.019
v -0.010 0.010 -0.019
v 0.000 0.010 -0.019
v 0.010 0.013 -0.019
v 0.010 0.011 -0.019
v 0.010 0.010 -0.019
v -0.010 0.014 -0.016
v -0.010 0.011 -0.016
v -0.010 0.010 -0.016
v 0.000 0.010 -0.016
v 0.010 0.014 -0.016
v 0.010 0.011 -0.016
v 0.010 0.010 -0.016
v -0.017 -0.002 0.016
v -0.017 -0.002 0.016
v -0.015 -0.003 0.016
v -0.014 -0.004 0.016
v -0.014 -0.004 0.016
v -0.009 0.005 0.016
v -0.007 0.015 0.016
v -0.007 0.015 0.016
v -0.005 0.014 0.016
v -0.004 0.014 0.016
v -0.004 0.014 0.016
v -0.017 -0.002 0.019
v -0.017 -0.002 0.019
v -0.015 -0.003 0.019
v -0.014 -0.004 0.019
v -0.014 -0.004 0.019
v -0.008 0.005 0.019
v -0.007 0.015 0.019
v -0.007 0.015 0.019
v -0.005 0.014 0.019
v -0.003 0.014 0.019
v -0.003 0.014 0.019
v -0.017 -0.002 0.016
v -0.015 -0.003 0.016
v -0.014 -0.004 0.016
v -0.009 0.005 0.016
v -0.007 0.015 0.016
v -0.005 0.014 0.016
v -0.004 0.014 0.016
v -0.017 -0.002 0.019
v -0.015 -0.003 0.019
v -0.014 -0.004 0.019
v -0.008 0.005 0.019
v -0.007 0.015 0.019
v -0.005 0.014 0.019
v -0.003 0.014 0.019
v -0.010 0.013 -0.021
v -0.010 0.013 -0.021
v 0.010 0.013 -0.021
v 0.010 0.013 -0.021
v -0.006 0.013 -0.021
v -0.002 0.012 -0.015
v -0.002 0.012 -0.020
v -0.002 0.012 -0.024
v -0.002 0.012 -0.028
v -0.002 0.012 -0.033
v -0.002 0.012 -0.037
v -0.002 0.011 -0.015
v -0.002 0.011 -0.020
v -0.002 0.011 -0.024
v -0.002 0.011 -0.028
v -0.002 0.011 -0.033
v -0.002 0.011 -0.037
v -0.001 0.010 -0.015
v -0.001 0.010 -0.020
v -0.001 0.010 -0.024
v -0.001 0.010 -0.028
v -0.001 0.010 -0.033
v -0.001 0.010 -0.037
v -0.001 0.010 -0.015
v -0.001 0.010 -0.020
v -0.001 0.010 -0.024
v -0.001 0.010 -0.028
v -0.001 0.010 -0.033
v -0.001 0.010 -0.037
v 0.000 0.010 -0.015
v 0.000 0.010 -0.020
v 0.000 0.010 -0.024
v 0.000 0.010 -0.028
v 0.000 0.010 -0.033
v 0.000 0.010 -0.037
v 0.001 0.010 -0.015
v 0.001 0.010 -0.020
v 0.001 0.010 -0.024
v 0.001 0.010 -0.028
v 0.001 0.010 -0.033
v 0.001 0.010 -0.037
v 0.001 0.010 -0.015
v 0.001 0.010 -0.020
v 0.001 0.010 -0.024
v 0.001 0.010 -0.028
v 0.001 0.010 -0.033
v 0.001 0.010 -0.037
v 0.002 0.011 -0.015
v 0.002 0.011 -0.020
v 0.002 0.011 -0.024
v 0.002 0.011 -0.028
v 0.002 0.011 -0.033
v 0.002 0.011 -0.037
v 0.002 0.012 -0.015
v 0.002 0.012 -0.020
v 0.002 0.012 -0.024
v 0.002 0.012 -0.028
v 0.002 0.012 -0.033
v 0.002 0.012 -0.037
v 0.002 0.012 -0.015
v 0.002 0.012 -0.020
v 0.002 0.012 -0.024
v 0.002 0.012 -0.028
v 0.002 0.012 -0.033
v 0.002 0.012 -0.037
v 0.001 0.013 -0.015
v 0.001 0.013 -0.020
v 0.001 0.013 -0.024
v 0.001 0.013 -0.028
v 0.001 0.013 -0.033
v 0.001 0.013 -0.037
v 0.001 0.014 -0.015
v 0.001 0.014 -0.020
v 0.001 0.014 -0.024
v 0.001 0.014 -0.028
v 0.001 0.014 -0.033
v 0.001 0.014 -0.037
v 0.000 0.014 -0.015
v 0.000 0.014 -0.020
v 0.000 0.014 -0.024
v 0.000 0.014 -0.028
v 0.000 0.014 -0.033
v 0.000 0.014 -0.037
v -0.001 0.014 -0.015
v -0.001 0.014 -0.020
v -0.001 0.014 -0.024
v -0.001 0.014 -0.028
v -0.001 0.014 -0.033
v -0.001 0.014 -0.037
v -0.001 0.013 -0.015
v -0.001 0.013 -0.020
v -0.001 0.013 -0.024
v -0.001 0.013 -0.028
v -0.001 0.013 -0.033
v -0.001 0.013 -0.037
v -0.002 0.012 -0.015
v -0.002 0.012 -0.020
v -0.002 0.012 -0.024
v -0.002 0.012 -0.028
v -0.002 0.012 -0.033
v -0.002 0.012 -0.037
v -0.002 0.012 -0.015
v -0.002 0.012 -0.020
v -0.002 0.012 -0.024
v -0.002 0.012 -0.028
v -0.002 0.012 -0.033
v -0.002 0.012 -0.037
v -0.002 0.011 -0.017
v -0.002 0.011 -0.020
v -0.002 0.012 -0.017
v -0.002 0.011 -0.017
v -0.001 0.010 -0.017
v -0.001 0.010 -0.020
v -0.001 0.010 -0.017
v -0.001 0.010 -0.017
v 0.000 0.010 -0.017
v -0.000 0.010 -0.020
v -0.000 0.010 -0.017
v 0.001 0.010 -0.017
v 0.000 0.010 -0.020
v 0.000 0.010 -0.017
v 0.002 0.011 -0.017
v 0.002 0.011 -0.020
v 0.001 0.010 -0.017
v 0.002 0.011 -0.017
v 0.002 0.012 -0.017
v 0.002 0.011 -0.020
v 0.002 0.011 -0.017
v 0.002 0.012 -0.017
v 0.002 0.012 -0.020
v 0.002 0.012 -0.017
v 0.001 0.014 -0.017
v 0.001 0.013 -0.020
v 0.001 0.013 -0.017
v 0.001 0.013 -0.017
v 0.000 0.014 -0.017
v 0.000 0.014 -0.020
v 0.000 0.014 -0.017
v -0.001 0.014 -0.017
v -0.000 0.014 -0.020
v -0.000 0.014 -0.017
v -0.002 0.012 -0.017
v -0.002 0.013 -0.020
v -0.001 0.013 -0.017
v -0.002 0.013 -0.017
v -0.002 0.012 -0.017
v -0.002 0.012 -0.020
v -0.002 0.012 -0.017
v -0.002 0.012 -0.035
v -0.002 0.012 -0.035
v -0.002 0.012 -0.033
v -0.002 0.012 -0.035
v -0.001 0.013 -0.035
v -0.002 0.013 -0.033
v -0.002 0.013 -0.035
v -0.001 0.014 -0.035
v 0.000 0.014 -0.035
v -0.000 0.014 -0.033
v -0.000 0.014 -0.035
v 0.001 0.014 -0.035
v 0.000 0.014 -0.033
v 0.000 0.014 -0.035
v 0.001 0.013 -0.035
v 0.001 0.013 -0.033
v 0.001 0.013 -0.035
v 0.002 0.012 -0.035
v 0.002 0.012 -0.035
v 0.002 0.012 -0.033
v 0.002 0.012 -0.035
v 0.002 0.011 -0.035
v 0.002 0.011 -0.033
v 0.002 0.011 -0.035
v 0.001 0.010 -0.035
v 0.002 0.011 -0.033
v 0.002 0.011 -0.035
v 0.001 0.010 -0.035
v 0.000 0.010 -0.035
v 0.000 0.010 -0.033
v 0.000 0.010 -0.035
v -0.001 0.010 -0.035
v -0.000 0.010 -0.033
v -0.000 0.010 -0.035
v -0.001 0.010 -0.035
v -0.001 0.010 -0.033
v -0.001 0.010 -0.035
v -0.002 0.011 -0.035
v -0.002 0.012 -0.035
v -0.002 0.011 -0.033
v -0.002 0.011 -0.035
v -0.002 0.012 -0.015
v -0.002 0.011 -0.015
v -0.001 0.010 -0.015
v -0.001 0.010 -0.015
v 0.000 0.010 -0.015
v 0.001 0.010 -0.015
v 0.001 0.010 -0.015
v 0.002 0.011 -0.015
v 0.002 0.012 -0.015
v 0.002 0.012 -0.015
v 0.001 0.013 -0.015
v 0.001 0.014 -0.015
v 0.000 0.014 -0.015
v -0.001 0.014 -0.015
v -0.001 0.013 -0.015
v -0.002 0.012 -0.015
v -0.002 0.012 -0.037
v -0.002 0.011 -0.037
v -0.001 0.010 -0.037
v -0.001 0.010 -0.037
v 0.000 0.010 -0.037
v 0.001 0.010 -0.037
v 0.001 0.010 -0.037
v 0.002 0.011 -0.037
v 0.002 0.012 -0.037
v 0.002 0.012 -0.037
v 0.001 0.013 -0.037
v 0.001 0.014 -0.037
v 0.000 0.014 -0.037
v -0.001 0.014 -0.037
v -0.001 0.013 -0.037
v -0.002 0.012 -0.037
v -0.011 0.004 0.015
v -0.011 0.004 0.020
v -0.011 0.004 0.024
v -0.011 0.004 0.028
v -0.011 0.004 0.033
v -0.011 0.004 0.037
v -0.010 0.004 0.015
v -0.010 0.004 0.020
v -0.010 0.004 0.024
v -0.010 0.004 0.028
v -0.010 0.004 0.033
v -0.010 0.004 0.037
v -0.010 0.004 0.015
v -0.010 0.004 0.020
v -0.010 0.004 0.024
v -0.010 0.004 0.028
v -0.010 0.004 0.033
v -0.010 0.004 0.037
v -0.009 0.004 0.015
v -0.009 0.004 0.020
v -0.009 0.004 0.024
v -0.009 0.004 0.028
v -0.009 0.004 0.033
v -0.009 0.004 0.037
v -0.008 0.005 0.015
v -0.008 0.005 0.020
v -0.008 0.005 0.024
v -0.008 0.005 0.028
v -0.008 0.005 0.033
v -0.008 0.005 0.037
v -0.008 0.006 0.015
v -0.008 0.006 0.020
v -0.008 0.006 0.024
v -0.008 0.006 0.028
v -0.008 0.006 0.033
v -0.008 0.006 0.037
v -0.008 0.006 0.015
v -0.008 0.006 0.020
v -0.008 0.006 0.024
v -0.008 0.006 0.028
v -0.008 0.006 0.033
v -0.008 0.006 0.037
v -0.009 0.007 0.015
v -0.009 0.007 0.020
v -0.009 0.007 0.024
v -0.009 0.007 0.028
v -0.009 0.007 0.033
v -0.009 0.007 0.037
v -0.009 0.008 0.015
v -0.009 0.008 0.020
v -0.009 0.008 0.024
v -0.009 0.008 0.028
v -0.009 0.008 0.033
v -0.009 0.008 0.037
v -0.010 0.008 0.015
v -0.010 0.008 0.020
v -0.010 0.008 0.024
v -0.010 0.008 0.028
v -0.010 0.008 0.033
v -0.010 0.008 0.037
v -0.011 0.008 0.015
v -0.011 0.008 0.020
v -0.011 0.008 0.024
v -0.011 0.008 0.028
v -0.011 0.008 0.033
v -0.011 0.008 0.037
v -0.011 0.007 0.015
v -0.011 0.007 0.020
v -0.011 0.007 0.024
v -0.011 0.007 0.028
v -0.011 0.007 0.033
v -0.011 0.007 0.037
v -0.012 0.007 0.015
v -0.012 0.007 0.020
v -0.012 0.007 0.024
v -0.012 0.007 0.028
v -0.012 0.007 0.033
v -0.012 0.007 0.037
v -0.012 0.006 0.015
v -0.012 0.006 0.020
v -0.012 0.006 0.024
v -0.012 0.006 0.028
v -0.012 0.006 0.033
v -0.012 0.006 0.037
v -0.012 0.005 0.015
v -0.012 0.005 0.020
v -0.012 0.005 0.024
v -0.012 0.005 0.028
v -0.012 0.005 0.033
v -0.012 0.005 0.037
v -0.012 0.005 0.015
v -0.012 0.005 0.020
v -0.012 0.005 0.024
v -0.012 0.005 0.028
v -0.012 0.005 0.033
v -0.012 0.005 0.037
v -0.011 0.004 0.015
v -0.011 0.004 0.020
v -0.011 0.004 0.024
v -0.011 0.004 0.028
v -0.011 0.004 0.033
v -0.011 0.004 0.037
v -0.010 0.004 0.017
v -0.011 0.004 0.020
v -0.011 0.004 0.017
v -0.011 0.004 0.017
v -0.009 0.004 0.017
v -0.009 0.004 0.020
v -0.010 0.004 0.017
v -0.009 0.004 0.017
v -0.008 0.005 0.017
v -0.009 0.005 0.020
v -0.009 0.005 0.017
v -0.008 0.006 0.017
v -0.008 0.005 0.020
v -0.008 0.005 0.017
v -0.009 0.007 0.017
v -0.008 0.007 0.020
v -0.008 0.006 0.017
v -0.008 0.007 0.017
v -0.009 0.008 0.017
v -0.009 0.007 0.020
v -0.009 0.007 0.017
v -0.010 0.008 0.017
v -0.009 0.008 0.020
v -0.009 0.008 0.017
v -0.011 0.007 0.017
v -0.011 0.008 0.020
v -0.011 0.008 0.017
v -0.011 0.008 0.017
v -0.012 0.007 0.017
v -0.012 0.007 0.020
v -0.012 0.007 0.017
v -0.012 0.006 0.017
v -0.012 0.007 0.020
v -0.012 0.007 0.017
v -0.012 0.005 0.017
v -0.012 0.005 0.020
v -0.012 0.005 0.017
v -0.012 0.005 0.017
v -0.011 0.004 0.017
v -0.011 0.004 0.020
v -0.011 0.004 0.017
v -0.011 0.004 0.035
v -0.012 0.005 0.035
v -0.011 0.004 0.033
v -0.011 0.004 0.035
v -0.012 0.005 0.035
v -0.012 0.005 0.033
v -0.012 0.005 0.035
v -0.012 0.006 0.035
v -0.012 0.007 0.035
v -0.012 0.007 0.033
v -0.012 0.007 0.035
v -0.011 0.007 0.035
v -0.012 0.007 0.033
v -0.012 0.007 0.035
v -0.011 0.008 0.035
v -0.011 0.008 0.033
v -0.011 0.008 0.035
v -0.010 0.008 0.035
v -0.009 0.008 0.035
v -0.009 0.008 0.033
v -0.009 0.008 0.035
v -0.009 0.007 0.035
v -0.009 0.007 0.033
v -0.009 0.007 0.035
v -0.008 0.006 0.035
v -0.008 0.007 0.033
v -0.008 0.007 0.035
v -0.008 0.006 0.035
v -0.008 0.005 0.035
v -0.008 0.005 0.033
v -0.008 0.005 0.035
v -0.009 0.004 0.035
v -0.009 0.005 0.033
v -0.009 0.005 0.035
v -0.010 0.004 0.035
v -0.009 0.004 0.033
v -0.009 0.004 0.035
v -0.010 0.004 0.035
v -0.011 0.004 0.035
v -0.011 0.004 0.033
v -0.011 0.004 0.035
v -0.011 0.004 0.015
v -0.010 0.004 0.015
v -0.010 0.004 0.015
v -0.009 0.004 0.015
v -0.008 0.005 0.015
v -0.008 0.006 0.015
v -0.008 0.006 0.015
v -0.009 0.007 0.015
v -0.009 0.008 0.015
v -0.010 0.008 0.015
v -0.011 0.008 0.015
v -0.011 0.007 0.015
v -0.012 0.007 0.015
v -0.012 0.006 0.015
v -0.012 0.005 0.015
v -0.012 0.005 0.015
v -0.011 0.004 0.037
v -0.010 0.004 0.037
v -0.010 0.004 0.037
v -0.009 0.004 0.037
v -0.008 0.005 0.037
v -0.008 0.006 0.037
v -0.008 0.006 0.037
v -0.009 0.007 0.037
v -0.009 0.008 0.037
v -0.010 0.008 0.037
v -0.011 0.008 0.037
v -0.011 0.007 0.037
v -0.012 0.007 0.037
v -0.012 0.006 0.037
v -0.012 0.005 0.037
v -0.012 0.005 0.037
f 1 2 4 3
f 5 6 8 7
f 9 10 12 11
f 13 14 16 15
f 20 18 19
f 18 20 17
f 24 23 22
f 22 21 24
f 455 456 452
f 503 146 433
f 433 432 503
f 438 505 437
f 505 438 108
f 506 86 502
f 85 506 504
f 506 85 86
f 456 455 457
f 457 455 458
f 453 454 455
f 455 452 453
f 462 464 465
f 464 462 463
f 462 459 463
f 460 459 462
f 462 461 460
f 229 211 445
f 446 229 445
f 209 227 436
f 436 435 209
f 210 229 446
f 451 210 446
f 208 440 436
f 208 436 227
f 444 154 443
f 154 147 443
f 443 147 442
f 434 433 155
f 433 146 155
f 450 449 116
f 449 109 116
f 448 109 449
f 117 438 439
f 438 117 108
f 88 447 441
f 87 447 88
f 430 429 431
f 428 426 427
f 425 423 424
f 421 422 420
f 419 418 417
f 415 416 414
f 409 411 413
f 410 409 413 412
f 406 405 407 408
f 402 403 404
f 401 404 403
f 402 404 400
f 399 381 379 397
f 385 386 383 398
f 398 383 381 399
f 377 396 397 379
f 396 377 375 395
f 384 385 398 382
f 380 399 397 378
f 382 398 399 380
f 396 376 378 397
f 369 392 393 371
f 395 374 376 396
f 395 375 373 394
f 394 373 371 393
f 374 395 394 372
f 372 394 393 370
f 392 368 370 393
f 392 369 367 390
f 390 367 365 391
f 391 365 363 389
f 361 388 389 363
f 357 387 359
f 355 354 357
f 368 392 390 366
f 364 391 389 362
f 366 390 391 364
f 362 389 388 360
f 387 357 356
f 357 354 356
f 387 356 358
f 354 353 356
f 338 332 337
f 335 315 316
f 332 315 337
f 332 338 331
f 337 315 336
f 335 316 352
f 335 351 334
f 352 351 335
f 315 335 336
f 340 329 339
f 339 329 330
f 326 327 342
f 340 328 329
f 328 340 341
f 327 341 342
f 341 327 328
f 319 350 318
f 351 317 334
f 333 334 318
f 317 318 334
f 318 350 333
f 350 319 349
f 348 349 320
f 319 320 349
f 347 348 321
f 320 321 348
f 325 344 324
f 343 326 342
f 325 343 344
f 344 345 324
f 343 325 326
f 345 323 324
f 321 322 347
f 323 346 322
f 347 322 346
f 345 346 323
f 299 294 300
f 294 293 300
f 297 296 314
f 277 294 299
f 314 278 297
f 298 297 277
f 278 277 297
f 277 299 298
f 303 302 290
f 292 291 301
f 302 301 291
f 302 291 290
f 287 305 288
f 303 290 289
f 289 304 303
f 288 305 304
f 304 289 288
f 295 312 280
f 296 279 313
f 314 296 313
f 280 296 295
f 312 311 281
f 296 280 279
f 281 280 312
f 310 282 311
f 281 311 282
f 286 285 307
f 306 305 287
f 286 307 306
f 307 285 308
f 306 287 286
f 308 285 284
f 282 310 283
f 284 283 309
f 310 309 283
f 308 284 309
f 263 264 262 261
f 273 274 272 271
f 275 276 274 273
f 267 268 266 265
f 269 270 268 267
f 265 266 264 263
f 261 262 260 259
f 253 254 252 251
f 257 258 256 255
f 259 260 258 257
f 255 256 254 253
f 249 250 248 247
f 251 252 250 249
f 247 248 246 245
f 241 242 244
f 240 244 242
f 241 244 243
f 241 243 239
f 237 236 238
f 231 235 233
f 232 234 230
f 231 230 234 235
f 215 216 213 228
f 228 213 211 229
f 227 209 207 226
f 214 215 228 212
f 212 228 229 210
f 201 223 224 203
f 226 206 208 227
f 226 207 205 225
f 225 205 203 224
f 206 226 225 204
f 204 225 224 202
f 223 200 202 224
f 223 201 199 221
f 221 199 197 222
f 222 197 195 220
f 193 219 220 195
f 187 217 189
f 191 218 219 193
f 185 184 187
f 218 191 189 217
f 200 223 221 198
f 196 222 220 194
f 198 221 222 196
f 194 220 219 192
f 192 219 218 190
f 217 187 186
f 217 188 190 218
f 187 184 186
f 217 186 188
f 184 183 186
f 179 182 181
f 178 180 182
f 182 179 178
f 175 174 176 177
f 171 172 173
f 170 173 172
f 171 173 169
f 153 148 154
f 148 147 154
f 151 150 168
f 131 148 153
f 168 132 151
f 152 151 131
f 132 131 151
f 131 153 152
f 157 156 144
f 146 145 155
f 156 155 145
f 156 145 144
f 141 159 142
f 157 144 143
f 143 158 157
f 142 159 158
f 158 143 142
f 149 166 134
f 150 133 167
f 168 150 167
f 134 150 149
f 166 165 135
f 150 134 133
f 135 134 166
f 164 136 165
f 135 165 136
f 140 139 161
f 160 159 141
f 140 161 160
f 161 139 162
f 160 141 140
f 162 139 138
f 136 164 137
f 138 137 163
f 164 163 137
f 162 138 163
f 116 110 115
f 113 93 94
f 110 93 115
f 110 116 109
f 115 93 114
f 113 94 130
f 113 129 112
f 130 129 113
f 93 113 114
f 118 107 117
f 117 107 108
f 104 105 120
f 118 106 107
f 106 118 119
f 105 119 120
f 119 105 106
f 97 128 96
f 129 95 112
f 111 112 96
f 95 96 112
f 96 128 111
f 128 97 127
f 126 127 98
f 97 98 127
f 125 126 99
f 98 99 126
f 103 122 102
f 121 104 120
f 103 121 122
f 122 123 102
f 121 103 104
f 123 101 102
f 99 100 125
f 101 124 100
f 125 100 124
f 123 124 101
f 79 77 78 80
f 89 87 88 90
f 91 89 90 92
f 83 81 82 84
f 85 83 84 86
f 81 79 80 82
f 77 75 76 78
f 69 67 68 70
f 73 71 72 74
f 75 73 74 76
f 71 69 70 72
f 65 63 64 66
f 67 65 66 68
f 63 61 62 64
f 57 59 58
f 56 58 60
f 58 59 60
f 57 55 59
f 54 53 52
f 47 49 51
f 48 46 50
f 47 51 50 46
f 361 480 482
f 361 482 388
f 469 387 471
f 387 469 359
f 482 486 360
f 360 388 482
f 358 471 387
f 358 475 471
f 468 331 338
f 470 468 338
f 466 331 468
f 479 330 477
f 479 339 330
f 339 479 481
f 300 293 474
f 476 300 474
f 483 292 485
f 474 293 472
f 485 292 301
f 487 485 301
f 270 269 484
f 270 484 478
f 473 271 272
f 473 272 467
f 498 497 496
f 496 495 498
f 495 499 498
f 500 498 499
f 498 500 501
f 491 488 489
f 492 488 491
f 489 490 491
f 493 491 494
f 491 493 492
f 41 44 43
f 37 38 40
f 33 34 45
f 34 36 45
f 45 35 33
f 25 26 28 27
f 41 43 42
f 38 39 40
f 29 30 32 31
f 514 609 612 610
f 610 612 611 508
f 610 515 514
f 509 610 508
f 515 610 509
f 516 515 509 510
f 689 510 511
f 516 689 517
f 510 689 516
f 690 689 511 688
f 687 517 689 690
f 521 520 514 515
f 522 521 515 516
f 523 522 516 517
f 526 613 616 614
f 614 616 615 520
f 614 527 526
f 521 614 520
f 527 614 521
f 528 527 521 522
f 685 522 523
f 528 685 529
f 522 685 528
f 686 685 523 684
f 681 529 685 686
f 532 617 619 618
f 618 619 613 526
f 618 533 532
f 527 618 526
f 533 618 527
f 534 533 527 528
f 682 528 529
f 534 682 535
f 528 682 534
f 683 682 529 681
f 678 535 682 683
f 538 620 622 621
f 621 622 617 532
f 621 539 538
f 533 621 532
f 539 621 533
f 540 539 533 534
f 679 534 535
f 540 679 541
f 534 679 540
f 680 679 535 678
f 677 541 679 680
f 545 544 538 539
f 546 545 539 540
f 547 546 540 541
f 550 623 626 624
f 624 626 625 544
f 624 551 550
f 545 624 544
f 551 624 545
f 552 551 545 546
f 675 546 547
f 552 675 553
f 546 675 552
f 676 675 547 674
f 671 553 675 676
f 556 627 629 628
f 628 629 623 550
f 628 557 556
f 551 628 550
f 557 628 551
f 558 557 551 552
f 672 552 553
f 558 672 559
f 552 672 558
f 673 672 553 671
f 668 559 672 673
f 562 630 632 631
f 631 632 627 556
f 631 563 562
f 557 631 556
f 563 631 557
f 564 563 557 558
f 669 558 559
f 564 669 565
f 558 669 564
f 670 669 559 668
f 667 565 669 670
f 569 568 562 563
f 570 569 563 564
f 571 570 564 565
f 574 633 636 634
f 634 636 635 568
f 634 575 574
f 569 634 568
f 575 634 569
f 576 575 569 570
f 665 570 571
f 576 665 577
f 570 665 576
f 666 665 571 664
f 661 577 665 666
f 580 637 639 638
f 638 639 633 574
f 638 581 580
f 575 638 574
f 581 638 575
f 582 581 575 576
f 662 576 577
f 582 662 583
f 576 662 582
f 663 662 577 661
f 658 583 662 663
f 586 640 642 641
f 641 642 637 580
f 641 587 586
f 581 641 580
f 587 641 581
f 588 587 581 582
f 659 582 583
f 588 659 589
f 582 659 588
f 660 659 583 658
f 657 589 659 660
f 593 592 586 587
f 594 593 587 588
f 595 594 588 589
f 598 643 646 644
f 644 646 645 592
f 644 599 598
f 593 644 592
f 599 644 593
f 600 599 593 594
f 655 594 595
f 600 655 601
f 594 655 600
f 656 655 595 654
f 651 601 655 656
f 604 647 649 648
f 648 649 643 598
f 648 605 604
f 599 648 598
f 605 648 599
f 606 605 599 600
f 652 600 601
f 606 652 607
f 600 652 606
f 653 652 601 651
f 650 607 652 653
f 611 612 507
f 513 507 612
f 609 513 612
f 519 513 609 615
f 519 615 616 525
f 514 520 615 609
f 525 616 613
f 619 525 613
f 619 531 525
f 617 622 531
f 531 622 620 537
f 619 617 531
f 549 543 626
f 543 537 620 625
f 549 629 627 555
f 538 544 625 620
f 549 626 623
f 629 549 623
f 626 543 625
f 627 632 555
f 512 690 688
f 523 517 687 684
f 684 687 518 524
f 518 687 690
f 518 690 512
f 530 681 686
f 536 683 530
f 681 530 683
f 530 686 684 524
f 536 680 678
f 677 674 547 541
f 674 677 542 548
f 542 677 680
f 542 680 536
f 554 671 676
f 560 668 673 554
f 671 554 673
f 548 554 676
f 674 548 676
f 683 536 678
f 630 561 632
f 555 632 561
f 630 635 567 561
f 567 636 633 573
f 579 573 639
f 562 568 635 630
f 639 573 633
f 636 567 635
f 637 579 639
f 637 642 579
f 585 579 642
f 640 585 642
f 591 585 640 645
f 603 597 649
f 646 597 591
f 645 640 586 592
f 597 646 643
f 603 649 647
f 649 597 643
f 646 591 645
f 560 670 668
f 566 667 670
f 572 666 664
f 571 565 667 664
f 664 667 566 572
f 566 670 560
f 578 663 661
f 658 663 584
f 578 584 663
f 578 661 666 572
f 658 584 660
f 657 654 595 589
f 590 657 660
f 602 651 656
f 596 656 654
f 654 657 590 596
f 590 660 584
f 608 650 653
f 653 602 608
f 656 596 602
f 653 651 602
f 693 691 692
f 700 705 691
f 691 693 700
f 705 706 691
f 705 703 704
f 703 705 702
f 694 700 693
f 697 695 696
f 694 697 700
f 698 699 697
f 700 701 702
f 700 702 705
f 700 697 699
f 697 694 695
f 709 708 707
f 716 707 721
f 707 716 709
f 721 707 722
f 721 720 719
f 719 718 721
f 710 709 716
f 713 712 711
f 710 716 713
f 714 713 715
f 716 718 717
f 716 721 718
f 716 715 713
f 713 711 710
f 730 826 828 825
f 826 724 827 828
f 826 730 731
f 725 724 826
f 731 725 826
f 732 726 725 731
f 905 727 726
f 732 733 905
f 726 732 905
f 906 904 727 905
f 903 906 905 733
f 737 731 730 736
f 738 732 731 737
f 739 733 732 738
f 742 830 832 829
f 830 736 831 832
f 830 742 743
f 737 736 830
f 743 737 830
f 744 738 737 743
f 901 739 738
f 744 745 901
f 738 744 901
f 902 900 739 901
f 897 902 901 745
f 748 834 835 833
f 834 742 829 835
f 834 748 749
f 743 742 834
f 749 743 834
f 750 744 743 749
f 898 745 744
f 750 751 898
f 744 750 898
f 899 897 745 898
f 894 899 898 751
f 754 837 838 836
f 837 748 833 838
f 837 754 755
f 749 748 837
f 755 749 837
f 756 750 749 755
f 895 751 750
f 756 757 895
f 750 756 895
f 896 894 751 895
f 893 896 895 757
f 761 755 754 760
f 762 756 755 761
f 763 757 756 762
f 766 840 842 839
f 840 760 841 842
f 840 766 767
f 761 760 840
f 767 761 840
f 768 762 761 767
f 891 763 762
f 768 769 891
f 762 768 891
f 892 890 763 891
f 887 892 891 769
f 772 844 845 843
f 844 766 839 845
f 844 772 773
f 767 766 844
f 773 767 844
f 774 768 767 773
f 888 769 768
f 774 775 888
f 768 774 888
f 889 887 769 888
f 884 889 888 775
f 778 847 848 846
f 847 772 843 848
f 847 778 779
f 773 772 847
f 779 773 847
f 780 774 773 779
f 885 775 774
f 780 781 885
f 774 780 885
f 886 884 775 885
f 883 886 885 781
f 785 779 778 784
f 786 780 779 785
f 787 781 780 786
f 790 850 852 849
f 850 784 851 852
f 850 790 791
f 785 784 850
f 791 785 850
f 792 786 785 791
f 881 787 786
f 792 793 881
f 786 792 881
f 882 880 787 881
f 877 882 881 793
f 796 854 855 853
f 854 790 849 855
f 854 796 797
f 791 790 854
f 797 791 854
f 798 792 791 797
f 878 793 792
f 798 799 878
f 792 798 878
f 879 877 793 878
f 874 879 878 799
f 802 857 858 856
f 857 796 853 858
f 857 802 803
f 797 796 857
f 803 797 857
f 804 798 797 803
f 875 799 798
f 804 805 875
f 798 804 875
f 876 874 799 875
f 873 876 875 805
f 809 803 802 808
f 810 804 803 809
f 811 805 804 810
f 814 860 862 859
f 860 808 861 862
f 860 814 815
f 809 808 860
f 815 809 860
f 816 810 809 815
f 871 811 810
f 816 817 871
f 810 816 871
f 872 870 811 871
f 867 872 871 817
f 820 864 865 863
f 864 814 859 865
f 864 820 821
f 815 814 864
f 821 815 864
f 822 816 815 821
f 868 817 816
f 822 823 868
f 816 822 868
f 869 867 817 868
f 866 869 868 823
f 827 723 828
f 723 729 825 828
f 735 831 825 729
f 735 741 832 831
f 730 825 831 736
f 741 829 832
f 835 829 741
f 835 741 747
f 833 747 838
f 753 838 747
f 835 747 833
f 836 838 753
f 765 842 759
f 759 841 836 753
f 765 771 845 839
f 754 836 841 760
f 765 839 842
f 771 843 845
f 842 841 759
f 843 771 848
f 728 904 906
f 739 900 903 733
f 900 740 734 903
f 734 906 903
f 734 728 906
f 746 902 897
f 752 746 899
f 897 899 746
f 746 740 900 902
f 752 894 896
f 893 757 763 890
f 890 764 758 893
f 758 896 893
f 758 752 896
f 770 892 887
f 776 770 887 889
f 764 892 770
f 890 892 764
f 899 894 752
f 846 848 777
f 771 777 848
f 846 777 783 851
f 789 852 783
f 795 855 789
f 778 846 851 784
f 789 849 852
f 855 849 789
f 852 851 783
f 853 855 795
f 853 795 858
f 801 858 795
f 856 858 801
f 807 861 856 801
f 819 865 813
f 862 807 813
f 861 808 802 856
f 813 859 862
f 819 863 865
f 865 859 813
f 862 861 807
f 776 884 886
f 782 886 883
f 788 880 882
f 787 880 883 781
f 880 788 782 883
f 782 776 886
f 794 877 879
f 874 800 879
f 794 879 800
f 882 794 788
f 877 794 882
f 889 884 776
f 874 876 800
f 873 805 811 870
f 806 876 873
f 818 872 867
f 812 870 872
f 870 812 806 873
f 806 800 876
f 824 869 866
f 869 824 818
f 872 818 812
f 869 818 867
f 909 908 907
f 909 907 912
f 912 910 909
f 917 922 921
f 922 917 907
f 920 919 921
f 911 910 912
f 914 913 912
f 916 914 912
f 915 914 916
f 919 918 921
f 917 921 918
f 912 917 916
f 917 912 907
f 925 923 924
f 925 928 923
f 928 925 926
f 933 937 938
f 938 923 933
f 936 937 935
f 927 928 926
f 930 928 929
f 932 928 930
f 931 932 930
f 935 937 934
f 933 934 937
f 928 932 933
f 933 923 928
