# OBJ
# COMPAS
# version: 2.1.1
# precision: 3
# V F E: 938 863 1750

o Mesh 0
v 0.016 -0.002 0.021
v 0.006 0.015 0.021
v 0.020 0.000 0.021
v 0.010 0.017 0.021
v 0.020 0.000 0.021
v 0.010 0.017 0.021
v 0.020 0.000 0.019
v 0.010 0.017 0.019
v 0.020 0.000 0.019
v 0.010 0.017 0.019
v 0.017 -0.002 0.019
v 0.007 0.015 0.019
v 0.017 -0.002 0.019
v 0.007 0.015 0.019
v 0.016 -0.002 0.021
v 0.006 0.015 0.021
v 0.016 -0.002 0.021
v 0.020 0.000 0.021
v 0.020 0.000 0.019
v 0.017 -0.002 0.019
v 0.006 0.015 0.021
v 0.010 0.017 0.021
v 0.010 0.017 0.019
v 0.007 0.015 0.019
v 0.010 0.013 -0.019
v -0.010 0.013 -0.019
v 0.010 0.017 -0.019
v -0.010 0.017 -0.019
v 0.010 0.017 -0.019
v -0.010 0.017 -0.019
v 0.010 0.017 -0.021
v -0.010 0.017 -0.021
v 0.010 0.017 -0.021
v -0.010 0.017 -0.021
v 0.010 0.013 -0.021
v -0.010 0.013 -0.021
v 0.010 0.013 -0.021
v 0.010 0.013 -0.019
v 0.010 0.017 -0.019
v 0.010 0.017 -0.021
v -0.010 0.013 -0.019
v -0.010 0.017 -0.019
v -0.010 0.017 -0.021
v -0.010 0.013 -0.021
v 0.006 0.013 -0.021
v -0.010 0.009 -0.007
v 0.010 0.009 -0.007
v -0.010 0.009 0.000
v 0.010 0.009 0.000
v -0.005 0.009 0.000
v 0.005 0.009 0.000
v 0.010 -0.006 0.000
v 0.007 -0.008 0.000
v 0.010 -0.008 0.000
v -0.010 -0.008 0.000
v 0.010 -0.008 0.000
v -0.010 -0.008 -0.007
v 0.010 -0.008 -0.007
v -0.005 -0.008 0.000
v 0.007 -0.008 0.000
v -0.010 -0.008 -0.007
v 0.010 -0.008 -0.007
v -0.010 -0.011 -0.010
v 0.010 -0.011 -0.010
v -0.010 -0.012 -0.014
v 0.010 -0.012 -0.014
v -0.010 -0.013 -0.018
v 0.010 -0.013 -0.018
v -0.010 -0.012 -0.022
v 0.010 -0.012 -0.022
v -0.010 -0.010 -0.026
v 0.010 -0.010 -0.026
v -0.010 -0.007 -0.028
v 0.010 -0.007 -0.028
v -0.010 -0.004 -0.030
v 0.010 -0.004 -0.030
v -0.010 0.000 -0.031
v 0.010 0.000 -0.031
v -0.010 0.004 -0.030
v 0.010 0.004 -0.030
v -0.010 0.008 -0.028
v 0.010 0.008 -0.028
v -0.010 0.011 -0.025
v 0.010 0.011 -0.025
v -0.010 0.013 -0.022
v 0.010 0.013 -0.022
v -0.010 0.013 -0.014
v 0.010 0.013 -0.014
v -0.010 0.011 -0.010
v 0.010 0.011 -0.010
v -0.010 0.009 -0.007
v 0.010 0.009 -0.007
v -0.010 0.009 -0.007
v -0.010 0.009 0.000
v -0.010 -0.008 0.000
v -0.010 -0.008 -0.007
v -0.010 -0.011 -0.010
v -0.010 -0.012 -0.014
v -0.010 -0.013 -0.018
v -0.010 -0.012 -0.022
v -0.010 -0.010 -0.026
v -0.010 -0.007 -0.028
v -0.010 -0.004 -0.030
v -0.010 0.000 -0.031
v -0.010 0.004 -0.030
v -0.010 0.008 -0.028
v -0.010 0.011 -0.025
v -0.010 0.013 -0.022
v -0.010 0.013 -0.014
v -0.010 0.011 -0.010
v -0.010 -0.004 -0.009
v -0.010 -0.004 -0.003
v -0.010 0.006 -0.003
v -0.010 0.006 -0.010
v -0.010 0.008 -0.012
v -0.010 0.010 -0.015
v -0.010 0.010 -0.021
v -0.010 0.008 -0.023
v -0.010 0.006 -0.026
v -0.010 0.003 -0.027
v -0.010 0.000 -0.027
v -0.010 -0.003 -0.027
v -0.010 -0.006 -0.025
v -0.010 -0.008 -0.023
v -0.010 -0.009 -0.020
v -0.010 -0.009 -0.017
v -0.010 -0.009 -0.014
v -0.010 -0.007 -0.011
v -0.010 0.002 0.000
v -0.010 0.006 0.000
v 0.010 0.009 -0.007
v 0.010 0.009 0.000
v 0.010 -0.008 0.000
v 0.010 -0.008 -0.007
v 0.010 -0.011 -0.010
v 0.010 -0.012 -0.014
v 0.010 -0.013 -0.018
v 0.010 -0.012 -0.022
v 0.010 -0.010 -0.026
v 0.010 -0.007 -0.028
v 0.010 -0.004 -0.030
v 0.010 0.000 -0.031
v 0.010 0.004 -0.030
v 0.010 0.008 -0.028
v 0.010 0.011 -0.025
v 0.010 0.013 -0.022
v 0.010 0.013 -0.014
v 0.010 0.011 -0.010
v 0.010 -0.004 -0.009
v 0.010 -0.004 -0.003
v 0.010 0.006 -0.003
v 0.010 0.006 -0.010
v 0.010 0.008 -0.012
v 0.010 0.010 -0.015
v 0.010 0.010 -0.021
v 0.010 0.008 -0.023
v 0.010 0.006 -0.026
v 0.010 0.003 -0.027
v 0.010 0.000 -0.027
v 0.010 -0.003 -0.027
v 0.010 -0.006 -0.025
v 0.010 -0.008 -0.023
v 0.010 -0.009 -0.020
v 0.010 -0.009 -0.017
v 0.010 -0.009 -0.014
v 0.010 -0.007 -0.011
v 0.010 -0.006 0.000
v 0.010 -0.000 0.000
v -0.010 0.006 -0.010
v 0.010 0.006 -0.010
v -0.010 0.006 -0.003
v 0.010 0.006 -0.003
v 0.000 0.006 -0.010
v -0.010 0.006 -0.003
v 0.010 0.006 -0.003
v -0.010 -0.004 -0.003
v 0.010 -0.004 -0.003
v -0.010 -0.004 -0.003
v 0.010 -0.004 -0.003
v -0.010 -0.004 -0.009
v 0.010 -0.004 -0.009
v 0.000 -0.004 -0.009
v -0.010 -0.004 -0.009
v 0.000 -0.004 -0.009
v 0.010 -0.004 -0.009
v -0.010 -0.007 -0.011
v 0.010 -0.007 -0.011
v -0.010 -0.009 -0.014
v 0.010 -0.009 -0.014
v -0.010 -0.009 -0.017
v 0.010 -0.009 -0.017
v -0.010 -0.009 -0.020
v 0.010 -0.009 -0.020
v -0.010 -0.008 -0.023
v 0.010 -0.008 -0.023
v -0.010 -0.006 -0.025
v 0.010 -0.006 -0.025
v -0.010 -0.003 -0.027
v 0.010 -0.003 -0.027
v -0.010 0.000 -0.027
v 0.010 0.000 -0.027
v -0.010 0.003 -0.027
v 0.010 0.003 -0.027
v -0.010 0.006 -0.026
v 0.010 0.006 -0.026
v -0.010 0.008 -0.023
v 0.010 0.008 -0.023
v -0.010 0.010 -0.021
v 0.010 0.010 -0.021
v -0.010 0.010 -0.015
v 0.010 0.010 -0.015
v -0.010 0.008 -0.012
v 0.010 0.008 -0.012
v -0.010 0.006 -0.010
v 0.000 0.006 -0.010
v 0.010 0.006 -0.010
v 0.000 -0.009 -0.014
v 0.000 -0.009 -0.017
v 0.000 -0.009 -0.020
v 0.000 -0.008 -0.023
v 0.000 -0.003 -0.027
v 0.000 -0.006 -0.025
v 0.000 0.000 -0.027
v 0.000 0.003 -0.027
v 0.000 0.006 -0.026
v 0.000 0.008 -0.023
v 0.000 0.010 -0.021
v 0.000 0.008 -0.012
v 0.000 0.010 -0.015
v 0.002 0.013 0.007
v 0.013 -0.004 0.007
v 0.002 0.013 0.000
v 0.013 -0.004 0.000
v 0.005 0.009 0.000
v 0.010 -0.000 0.000
v 0.010 -0.000 0.000
v 0.013 -0.004 0.000
v 0.010 -0.006 0.000
v -0.012 0.005 0.000
v -0.002 -0.013 0.000
v -0.012 0.005 0.007
v -0.002 -0.013 0.007
v -0.010 0.002 0.000
v -0.005 -0.008 0.000
v -0.012 0.005 0.007
v -0.002 -0.013 0.007
v -0.014 0.003 0.010
v -0.004 -0.014 0.010
v -0.016 0.003 0.014
v -0.006 -0.015 0.014
v -0.016 0.002 0.018
v -0.006 -0.015 0.018
v -0.016 0.003 0.022
v -0.005 -0.015 0.022
v -0.014 0.004 0.026
v -0.004 -0.014 0.026
v -0.011 0.005 0.028
v -0.001 -0.012 0.028
v -0.008 0.007 0.030
v 0.002 -0.010 0.030
v -0.005 0.009 0.031
v 0.005 -0.009 0.031
v -0.001 0.011 0.030
v 0.009 -0.006 0.030
v 0.002 0.013 0.028
v 0.012 -0.005 0.028
v 0.005 0.014 0.025
v 0.015 -0.003 0.025
v 0.006 0.015 0.022
v 0.016 -0.002 0.022
v 0.006 0.015 0.014
v 0.016 -0.002 0.014
v 0.005 0.014 0.010
v 0.015 -0.003 0.010
v 0.002 0.013 0.007
v 0.013 -0.004 0.007
v 0.002 0.013 0.007
v 0.002 0.013 0.000
v -0.012 0.005 0.000
v -0.012 0.005 0.007
v -0.014 0.003 0.010
v -0.016 0.003 0.014
v -0.016 0.002 0.018
v -0.016 0.003 0.022
v -0.014 0.004 0.026
v -0.011 0.005 0.028
v -0.008 0.007 0.030
v -0.005 0.009 0.031
v -0.001 0.011 0.030
v 0.002 0.013 0.028
v 0.005 0.014 0.025
v 0.006 0.015 0.022
v 0.006 0.015 0.014
v 0.005 0.014 0.010
v -0.009 0.006 0.009
v -0.009 0.006 0.003
v 0.000 0.012 0.003
v 0.000 0.012 0.010
v 0.002 0.013 0.012
v 0.003 0.014 0.015
v 0.003 0.014 0.021
v 0.002 0.013 0.023
v 0.000 0.012 0.026
v -0.002 0.010 0.027
v -0.005 0.009 0.027
v -0.008 0.007 0.027
v -0.010 0.006 0.025
v -0.012 0.005 0.023
v -0.013 0.004 0.020
v -0.013 0.004 0.017
v -0.012 0.004 0.014
v -0.011 0.005 0.011
v -0.010 0.006 0.000
v -0.005 0.009 0.000
v 0.013 -0.004 0.007
v 0.013 -0.004 0.000
v -0.002 -0.013 0.000
v -0.002 -0.013 0.007
v -0.004 -0.014 0.010
v -0.006 -0.015 0.014
v -0.006 -0.015 0.018
v -0.005 -0.015 0.022
v -0.004 -0.014 0.026
v -0.001 -0.012 0.028
v 0.002 -0.010 0.030
v 0.005 -0.009 0.031
v 0.009 -0.006 0.030
v 0.012 -0.005 0.028
v 0.015 -0.003 0.025
v 0.016 -0.002 0.022
v 0.016 -0.002 0.014
v 0.015 -0.003 0.010
v 0.001 -0.011 0.009
v 0.001 -0.011 0.003
v 0.010 -0.006 0.003
v 0.010 -0.006 0.010
v 0.012 -0.005 0.012
v 0.013 -0.004 0.015
v 0.013 -0.004 0.021
v 0.012 -0.005 0.023
v 0.010 -0.006 0.026
v 0.008 -0.007 0.027
v 0.005 -0.009 0.027
v 0.002 -0.010 0.027
v 0.000 -0.012 0.025
v -0.002 -0.013 0.023
v -0.003 -0.013 0.020
v -0.003 -0.013 0.017
v -0.002 -0.013 0.014
v -0.001 -0.012 0.011
v 0.007 -0.008 0.000
v 0.010 -0.006 0.000
v 0.000 0.012 0.010
v 0.005 0.003 0.010
v 0.010 -0.006 0.010
v 0.002 0.013 0.012
v 0.012 -0.005 0.012
v 0.003 0.014 0.015
v 0.013 -0.004 0.015
v 0.003 0.014 0.021
v 0.013 -0.004 0.021
v 0.002 0.013 0.023
v 0.012 -0.005 0.023
v 0.000 0.012 0.026
v 0.010 -0.006 0.026
v -0.002 0.010 0.027
v 0.008 -0.007 0.027
v -0.005 0.009 0.027
v 0.005 -0.009 0.027
v -0.008 0.007 0.027
v 0.002 -0.010 0.027
v -0.010 0.006 0.025
v 0.000 -0.012 0.025
v -0.012 0.005 0.023
v -0.002 -0.013 0.023
v -0.013 0.004 0.020
v -0.003 -0.013 0.020
v -0.013 0.004 0.017
v -0.003 -0.013 0.017
v -0.012 0.004 0.014
v -0.002 -0.013 0.014
v -0.011 0.005 0.011
v -0.001 -0.012 0.011
v -0.009 0.006 0.009
v -0.004 -0.002 0.009
v 0.001 -0.011 0.009
v 0.008 0.005 0.015
v 0.008 0.005 0.021
v 0.007 0.004 0.023
v 0.003 0.001 0.027
v 0.005 0.003 0.026
v 0.000 0.000 0.027
v -0.003 -0.002 0.027
v -0.005 -0.003 0.025
v -0.007 -0.004 0.023
v -0.008 -0.004 0.020
v -0.008 -0.005 0.017
v -0.006 -0.003 0.011
v -0.007 -0.004 0.014
v -0.009 0.006 0.009
v 0.001 -0.011 0.009
v -0.009 0.006 0.003
v 0.001 -0.011 0.003
v -0.004 -0.002 0.009
v -0.009 0.006 0.003
v 0.001 -0.011 0.003
v 0.000 0.012 0.003
v 0.010 -0.006 0.003
v 0.000 0.012 0.003
v 0.010 -0.006 0.003
v 0.000 0.012 0.010
v 0.010 -0.006 0.010
v 0.005 0.003 0.010
v -0.010 0.009 0.000
v -0.005 0.009 0.000
v -0.010 0.006 0.000
v -0.010 0.002 0.000
v -0.010 -0.008 0.000
v -0.005 -0.008 0.000
v 0.005 0.009 0.000
v 0.010 0.009 0.000
v 0.010 -0.000 0.000
v -0.010 0.006 0.000
v -0.012 0.005 0.000
v -0.010 0.002 0.000
v 0.007 -0.008 0.000
v -0.005 -0.008 0.000
v -0.002 -0.013 0.000
v 0.002 0.013 0.000
v 0.005 0.009 0.000
v -0.005 0.009 0.000
v 0.010 0.013 -0.019
v 0.010 0.011 -0.019
v 0.010 0.010 -0.019
v 0.010 0.010 -0.019
v 0.000 0.010 -0.019
v -0.010 0.013 -0.019
v -0.010 0.011 -0.019
v -0.010 0.010 -0.019
v -0.010 0.010 -0.019
v 0.010 0.014 -0.016
v 0.010 0.014 -0.016
v 0.010 0.011 -0.016
v 0.010 0.010 -0.016
v 0.010 0.010 -0.016
v 0.000 0.010 -0.016
v -0.010 0.014 -0.016
v -0.010 0.014 -0.016
v -0.010 0.011 -0.016
v -0.010 0.010 -0.016
v -0.010 0.010 -0.016
v 0.010 0.013 -0.019
v 0.010 0.011 -0.019
v 0.010 0.010 -0.019
v 0.000 0.010 -0.019
v -0.010 0.013 -0.019
v -0.010 0.011 -0.019
v -0.010 0.010 -0.019
v 0.010 0.014 -0.016
v 0.010 0.011 -0.016
v 0.010 0.010 -0.016
v 0.000 0.010 -0.016
v -0.010 0.014 -0.016
v -0.010 0.011 -0.016
v -0.010 0.010 -0.016
v 0.017 -0.002 0.016
v 0.017 -0.002 0.016
v 0.015 -0.003 0.016
v 0.014 -0.004 0.016
v 0.014 -0.004 0.016
v 0.009 0.005 0.016
v 0.007 0.015 0.016
v 0.007 0.015 0.016
v 0.005 0.014 0.016
v 0.004 0.014 0.016
v 0.004 0.014 0.016
v 0.017 -0.002 0.019
v 0.017 -0.002 0.019
v 0.015 -0.003 0.019
v 0.014 -0.004 0.019
v 0.014 -0.004 0.019
v 0.008 0.005 0.019
v 0.007 0.015 0.019
v 0.007 0.015 0.019
v 0.005 0.014 0.019
v 0.003 0.014 0.019
v 0.003 0.014 0.019
v 0.017 -0.002 0.016
v 0.015 -0.003 0.016
v 0.014 -0.004 0.016
v 0.009 0.005 0.016
v 0.007 0.015 0.016
v 0.005 0.014 0.016
v 0.004 0.014 0.016
v 0.017 -0.002 0.019
v 0.015 -0.003 0.019
v 0.014 -0.004 0.019
v 0.008 0.005 0.019
v 0.007 0.015 0.019
v 0.005 0.014 0.019
v 0.003 0.014 0.019
v 0.010 0.013 -0.021
v 0.010 0.013 -0.021
v -0.010 0.013 -0.021
v -0.010 0.013 -0.021
v 0.006 0.013 -0.021
v 0.002 0.012 -0.015
v 0.002 0.012 -0.020
v 0.002 0.012 -0.024
v 0.002 0.012 -0.028
v 0.002 0.012 -0.033
v 0.002 0.012 -0.037
v 0.002 0.011 -0.015
v 0.002 0.011 -0.020
v 0.002 0.011 -0.024
v 0.002 0.011 -0.028
v 0.002 0.011 -0.033
v 0.002 0.011 -0.037
v 0.001 0.010 -0.015
v 0.001 0.010 -0.020
v 0.001 0.010 -0.024
v 0.001 0.010 -0.028
v 0.001 0.010 -0.033
v 0.001 0.010 -0.037
v 0.001 0.010 -0.015
v 0.001 0.010 -0.020
v 0.001 0.010 -0.024
v 0.001 0.010 -0.028
v 0.001 0.010 -0.033
v 0.001 0.010 -0.037
v 0.000 0.010 -0.015
v 0.000 0.010 -0.020
v 0.000 0.010 -0.024
v 0.000 0.010 -0.028
v 0.000 0.010 -0.033
v 0.000 0.010 -0.037
v -0.001 0.010 -0.015
v -0.001 0.010 -0.020
v -0.001 0.010 -0.024
v -0.001 0.010 -0.028
v -0.001 0.010 -0.033
v -0.001 0.010 -0.037
v -0.001 0.010 -0.015
v -0.001 0.010 -0.020
v -0.001 0.010 -0.024
v -0.001 0.010 -0.028
v -0.001 0.010 -0.033
v -0.001 0.010 -0.037
v -0.002 0.011 -0.015
v -0.002 0.011 -0.020
v -0.002 0.011 -0.024
v -0.002 0.011 -0.028
v -0.002 0.011 -0.033
v -0.002 0.011 -0.037
v -0.002 0.012 -0.015
v -0.002 0.012 -0.020
v -0.002 0.012 -0.024
v -0.002 0.012 -0.028
v -0.002 0.012 -0.033
v -0.002 0.012 -0.037
v -0.002 0.012 -0.015
v -0.002 0.012 -0.020
v -0.002 0.012 -0.024
v -0.002 0.012 -0.028
v -0.002 0.012 -0.033
v -0.002 0.012 -0.037
v -0.001 0.013 -0.015
v -0.001 0.013 -0.020
v -0.001 0.013 -0.024
v -0.001 0.013 -0.028
v -0.001 0.013 -0.033
v -0.001 0.013 -0.037
v -0.001 0.014 -0.015
v -0.001 0.014 -0.020
v -0.001 0.014 -0.024
v -0.001 0.014 -0.028
v -0.001 0.014 -0.033
v -0.001 0.014 -0.037
v 0.000 0.014 -0.015
v 0.000 0.014 -0.020
v 0.000 0.014 -0.024
v 0.000 0.014 -0.028
v 0.000 0.014 -0.033
v 0.000 0.014 -0.037
v 0.001 0.014 -0.015
v 0.001 0.014 -0.020
v 0.001 0.014 -0.024
v 0.001 0.014 -0.028
v 0.001 0.014 -0.033
v 0.001 0.014 -0.037
v 0.001 0.013 -0.015
v 0.001 0.013 -0.020
v 0.001 0.013 -0.024
v 0.001 0.013 -0.028
v 0.001 0.013 -0.033
v 0.001 0.013 -0.037
v 0.002 0.012 -0.015
v 0.002 0.012 -0.020
v 0.002 0.012 -0.024
v 0.002 0.012 -0.028
v 0.002 0.012 -0.033
v 0.002 0.012 -0.037
v 0.002 0.012 -0.015
v 0.002 0.012 -0.020
v 0.002 0.012 -0.024
v 0.002 0.012 -0.028
v 0.002 0.012 -0.033
v 0.002 0.012 -0.037
v 0.002 0.011 -0.017
v 0.002 0.011 -0.020
v 0.002 0.012 -0.017
v 0.002 0.011 -0.017
v 0.001 0.010 -0.017
v 0.001 0.010 -0.020
v 0.001 0.010 -0.017
v 0.001 0.010 -0.017
v 0.000 0.010 -0.017
v 0.000 0.010 -0.020
v 0.000 0.010 -0.017
v -0.001 0.010 -0.017
v -0.000 0.010 -0.020
v -0.000 0.010 -0.017
v -0.002 0.011 -0.017
v -0.002 0.011 -0.020
v -0.001 0.010 -0.017
v -0.002 0.011 -0.017
v -0.002 0.012 -0.017
v -0.002 0.011 -0.020
v -0.002 0.011 -0.017
v -0.002 0.012 -0.017
v -0.002 0.012 -0.020
v -0.002 0.012 -0.017
v -0.001 0.014 -0.017
v -0.001 0.013 -0.020
v -0.001 0.013 -0.017
v -0.001 0.013 -0.017
v 0.000 0.014 -0.017
v -0.000 0.014 -0.020
v -0.000 0.014 -0.017
v 0.001 0.014 -0.017
v 0.000 0.014 -0.020
v 0.000 0.014 -0.017
v 0.002 0.012 -0.017
v 0.002 0.013 -0.020
v 0.001 0.013 -0.017
v 0.002 0.013 -0.017
v 0.002 0.012 -0.017
v 0.002 0.012 -0.020
v 0.002 0.012 -0.017
v 0.002 0.012 -0.035
v 0.002 0.012 -0.035
v 0.002 0.012 -0.033
v 0.002 0.012 -0.035
v 0.001 0.013 -0.035
v 0.002 0.013 -0.033
v 0.002 0.013 -0.035
v 0.001 0.014 -0.035
v 0.000 0.014 -0.035
v 0.000 0.014 -0.033
v 0.000 0.014 -0.035
v -0.001 0.014 -0.035
v -0.000 0.014 -0.033
v -0.000 0.014 -0.035
v -0.001 0.013 -0.035
v -0.001 0.013 -0.033
v -0.001 0.013 -0.035
v -0.002 0.012 -0.035
v -0.002 0.012 -0.035
v -0.002 0.012 -0.033
v -0.002 0.012 -0.035
v -0.002 0.011 -0.035
v -0.002 0.011 -0.033
v -0.002 0.011 -0.035
v -0.001 0.010 -0.035
v -0.002 0.011 -0.033
v -0.002 0.011 -0.035
v -0.001 0.010 -0.035
v 0.000 0.010 -0.035
v -0.000 0.010 -0.033
v -0.000 0.010 -0.035
v 0.001 0.010 -0.035
v 0.000 0.010 -0.033
v 0.000 0.010 -0.035
v 0.001 0.010 -0.035
v 0.001 0.010 -0.033
v 0.001 0.010 -0.035
v 0.002 0.011 -0.035
v 0.002 0.012 -0.035
v 0.002 0.011 -0.033
v 0.002 0.011 -0.035
v 0.002 0.012 -0.015
v 0.002 0.011 -0.015
v 0.001 0.010 -0.015
v 0.001 0.010 -0.015
v 0.000 0.010 -0.015
v -0.001 0.010 -0.015
v -0.001 0.010 -0.015
v -0.002 0.011 -0.015
v -0.002 0.012 -0.015
v -0.002 0.012 -0.015
v -0.001 0.013 -0.015
v -0.001 0.014 -0.015
v 0.000 0.014 -0.015
v 0.001 0.014 -0.015
v 0.001 0.013 -0.015
v 0.002 0.012 -0.015
v 0.002 0.012 -0.037
v 0.002 0.011 -0.037
v 0.001 0.010 -0.037
v 0.001 0.010 -0.037
v 0.000 0.010 -0.037
v -0.001 0.010 -0.037
v -0.001 0.010 -0.037
v -0.002 0.011 -0.037
v -0.002 0.012 -0.037
v -0.002 0.012 -0.037
v -0.001 0.013 -0.037
v -0.001 0.014 -0.037
v 0.000 0.014 -0.037
v 0.001 0.014 -0.037
v 0.001 0.013 -0.037
v 0.002 0.012 -0.037
v 0.011 0.004 0.015
v 0.011 0.004 0.020
v 0.011 0.004 0.024
v 0.011 0.004 0.028
v 0.011 0.004 0.033
v 0.011 0.004 0.037
v 0.010 0.004 0.015
v 0.010 0.004 0.020
v 0.010 0.004 0.024
v 0.010 0.004 0.028
v 0.010 0.004 0.033
v 0.010 0.004 0.037
v 0.010 0.004 0.015
v 0.010 0.004 0.020
v 0.010 0.004 0.024
v 0.010 0.004 0.028
v 0.010 0.004 0.033
v 0.010 0.004 0.037
v 0.009 0.004 0.015
v 0.009 0.004 0.020
v 0.009 0.004 0.024
v 0.009 0.004 0.028
v 0.009 0.004 0.033
v 0.009 0.004 0.037
v 0.008 0.005 0.015
v 0.008 0.005 0.020
v 0.008 0.005 0.024
v 0.008 0.005 0.028
v 0.008 0.005 0.033
v 0.008 0.005 0.037
v 0.008 0.006 0.015
v 0.008 0.006 0.020
v 0.008 0.006 0.024
v 0.008 0.006 0.028
v 0.008 0.006 0.033
v 0.008 0.006 0.037
v 0.008 0.006 0.015
v 0.008 0.006 0.020
v 0.008 0.006 0.024
v 0.008 0.006 0.028
v 0.008 0.006 0.033
v 0.008 0.006 0.037
v 0.009 0.007 0.015
v 0.009 0.007 0.020
v 0.009 0.007 0.024
v 0.009 0.007 0.028
v 0.009 0.007 0.033
v 0.009 0.007 0.037
v 0.009 0.008 0.015
v 0.009 0.008 0.020
v 0.009 0.008 0.024
v 0.009 0.008 0.028
v 0.009 0.008 0.033
v 0.009 0.008 0.037
v 0.010 0.008 0.015
v 0.010 0.008 0.020
v 0.010 0.008 0.024
v 0.010 0.008 0.028
v 0.010 0.008 0.033
v 0.010 0.008 0.037
v 0.011 0.008 0.015
v 0.011 0.008 0.020
v 0.011 0.008 0.024
v 0.011 0.008 0.028
v 0.011 0.008 0.033
v 0.011 0.008 0.037
v 0.011 0.007 0.015
v 0.011 0.007 0.020
v 0.011 0.007 0.024
v 0.011 0.007 0.028
v 0.011 0.007 0.033
v 0.011 0.007 0.037
v 0.012 0.007 0.015
v 0.012 0.007 0.020
v 0.012 0.007 0.024
v 0.012 0.007 0.028
v 0.012 0.007 0.033
v 0.012 0.007 0.037
v 0.012 0.006 0.015
v 0.012 0.006 0.020
v 0.012 0.006 0.024
v 0.012 0.006 0.028
v 0.012 0.006 0.033
v 0.012 0.006 0.037
v 0.012 0.005 0.015
v 0.012 0.005 0.020
v 0.012 0.005 0.024
v 0.012 0.005 0.028
v 0.012 0.005 0.033
v 0.012 0.005 0.037
v 0.012 0.005 0.015
v 0.012 0.005 0.020
v 0.012 0.005 0.024
v 0.012 0.005 0.028
v 0.012 0.005 0.033
v 0.012 0.005 0.037
v 0.011 0.004 0.015
v 0.011 0.004 0.020
v 0.011 0.004 0.024
v 0.011 0.004 0.028
v 0.011 0.004 0.033
v 0.011 0.004 0.037
v 0.010 0.004 0.017
v 0.011 0.004 0.020
v 0.011 0.004 0.017
v 0.011 0.004 0.017
v 0.009 0.004 0.017
v 0.009 0.004 0.020
v 0.010 0.004 0.017
v 0.009 0.004 0.017
v 0.008 0.005 0.017
v 0.009 0.005 0.020
v 0.009 0.005 0.017
v 0.008 0.006 0.017
v 0.008 0.005 0.020
v 0.008 0.005 0.017
v 0.009 0.007 0.017
v 0.008 0.007 0.020
v 0.008 0.006 0.017
v 0.008 0.007 0.017
v 0.009 0.008 0.017
v 0.009 0.007 0.020
v 0.009 0.007 0.017
v 0.010 0.008 0.017
v 0.009 0.008 0.020
v 0.009 0.008 0.017
v 0.011 0.007 0.017
v 0.011 0.008 0.020
v 0.011 0.008 0.017
v 0.011 0.008 0.017
v 0.012 0.007 0.017
v 0.012 0.007 0.020
v 0.012 0.007 0.017
v 0.012 0.006 0.017
v 0.012 0.007 0.020
v 0.012 0.007 0.017
v 0.012 0.005 0.017
v 0.012 0.005 0.020
v 0.012 0.005 0.017
v 0.012 0.005 0.017
v 0.011 0.004 0.017
v 0.011 0.004 0.020
v 0.011 0.004 0.017
v 0.011 0.004 0.035
v 0.012 0.005 0.035
v 0.011 0.004 0.033
v 0.011 0.004 0.035
v 0.012 0.005 0.035
v 0.012 0.005 0.033
v 0.012 0.005 0.035
v 0.012 0.006 0.035
v 0.012 0.007 0.035
v 0.012 0.007 0.033
v 0.012 0.007 0.035
v 0.011 0.007 0.035
v 0.012 0.007 0.033
v 0.012 0.007 0.035
v 0.011 0.008 0.035
v 0.011 0.008 0.033
v 0.011 0.008 0.035
v 0.010 0.008 0.035
v 0.009 0.008 0.035
v 0.009 0.008 0.033
v 0.009 0.008 0.035
v 0.009 0.007 0.035
v 0.009 0.007 0.033
v 0.009 0.007 0.035
v 0.008 0.006 0.035
v 0.008 0.007 0.033
v 0.008 0.007 0.035
v 0.008 0.006 0.035
v 0.008 0.005 0.035
v 0.008 0.005 0.033
v 0.008 0.005 0.035
v 0.009 0.004 0.035
v 0.009 0.005 0.033
v 0.009 0.005 0.035
v 0.010 0.004 0.035
v 0.009 0.004 0.033
v 0.009 0.004 0.035
v 0.010 0.004 0.035
v 0.011 0.004 0.035
v 0.011 0.004 0.033
v 0.011 0.004 0.035
v 0.011 0.004 0.015
v 0.010 0.004 0.015
v 0.010 0.004 0.015
v 0.009 0.004 0.015
v 0.008 0.005 0.015
v 0.008 0.006 0.015
v 0.008 0.006 0.015
v 0.009 0.007 0.015
v 0.009 0.008 0.015
v 0.010 0.008 0.015
v 0.011 0.008 0.015
v 0.011 0.007 0.015
v 0.012 0.007 0.015
v 0.012 0.006 0.015
v 0.012 0.005 0.015
v 0.012 0.005 0.015
v 0.011 0.004 0.037
v 0.010 0.004 0.037
v 0.010 0.004 0.037
v 0.009 0.004 0.037
v 0.008 0.005 0.037
v 0.008 0.006 0.037
v 0.008 0.006 0.037
v 0.009 0.007 0.037
v 0.009 0.008 0.037
v 0.010 0.008 0.037
v 0.011 0.008 0.037
v 0.011 0.007 0.037
v 0.012 0.007 0.037
v 0.012 0.006 0.037
v 0.012 0.005 0.037
v 0.012 0.005 0.037
f 1 3 4 2
f 5 7 8 6
f 9 11 12 10
f 13 15 16 14
f 20 19 18
f 18 17 20
f 24 22 23
f 22 24 21
f 455 452 456
f 503 433 146
f 433 503 432
f 438 437 505
f 505 108 438
f 506 502 86
f 85 504 506
f 506 86 85
f 456 457 455
f 457 458 455
f 453 455 454
f 455 453 452
f 462 465 464
f 464 463 462
f 462 463 459
f 460 462 459
f 462 460 461
f 229 445 211
f 446 445 229
f 209 436 227
f 436 209 435
f 210 446 229
f 451 446 210
f 208 436 440
f 208 227 436
f 444 443 154
f 154 443 147
f 443 442 147
f 434 155 433
f 433 155 146
f 450 116 449
f 449 116 109
f 448 449 109
f 117 439 438
f 438 108 117
f 88 441 447
f 87 88 447
f 430 431 429
f 428 427 426
f 425 424 423
f 421 420 422
f 419 417 418
f 415 414 416
f 409 413 411
f 410 412 413 409
f 406 408 407 405
f 402 404 403
f 401 403 404
f 402 400 404
f 399 397 379 381
f 385 398 383 386
f 398 399 381 383
f 377 379 397 396
f 396 395 375 377
f 384 382 398 385
f 380 378 397 399
f 382 380 399 398
f 396 397 378 376
f 369 371 393 392
f 395 396 376 374
f 395 394 373 375
f 394 393 371 373
f 374 372 394 395
f 372 370 393 394
f 392 393 370 368
f 392 390 367 369
f 390 391 365 367
f 391 389 363 365
f 361 363 389 388
f 357 359 387
f 355 357 354
f 368 366 390 392
f 364 362 389 391
f 366 364 391 390
f 362 360 388 389
f 387 356 357
f 357 356 354
f 387 358 356
f 354 356 353
f 338 337 332
f 335 316 315
f 332 337 315
f 332 331 338
f 337 336 315
f 335 352 316
f 335 334 351
f 352 335 351
f 315 336 335
f 340 339 329
f 339 330 329
f 326 342 327
f 340 329 328
f 328 341 340
f 327 342 341
f 341 328 327
f 319 318 350
f 351 334 317
f 333 318 334
f 317 334 318
f 318 333 350
f 350 349 319
f 348 320 349
f 319 349 320
f 347 321 348
f 320 348 321
f 325 324 344
f 343 342 326
f 325 344 343
f 344 324 345
f 343 326 325
f 345 324 323
f 321 347 322
f 323 322 346
f 347 346 322
f 345 323 346
f 299 300 294
f 294 300 293
f 297 314 296
f 277 299 294
f 314 297 278
f 298 277 297
f 278 297 277
f 277 298 299
f 303 290 302
f 292 301 291
f 302 291 301
f 302 290 291
f 287 288 305
f 303 289 290
f 289 303 304
f 288 304 305
f 304 288 289
f 295 280 312
f 296 313 279
f 314 313 296
f 280 295 296
f 312 281 311
f 296 279 280
f 281 312 280
f 310 311 282
f 281 282 311
f 286 307 285
f 306 287 305
f 286 306 307
f 307 308 285
f 306 286 287
f 308 284 285
f 282 283 310
f 284 309 283
f 310 283 309
f 308 309 284
f 263 261 262 264
f 273 271 272 274
f 275 273 274 276
f 267 265 266 268
f 269 267 268 270
f 265 263 264 266
f 261 259 260 262
f 253 251 252 254
f 257 255 256 258
f 259 257 258 260
f 255 253 254 256
f 249 247 248 250
f 251 249 250 252
f 247 245 246 248
f 241 244 242
f 240 242 244
f 241 243 244
f 241 239 243
f 237 238 236
f 231 233 235
f 232 230 234
f 231 235 234 230
f 215 228 213 216
f 228 229 211 213
f 227 226 207 209
f 214 212 228 215
f 212 210 229 228
f 201 203 224 223
f 226 227 208 206
f 226 225 205 207
f 225 224 203 205
f 206 204 225 226
f 204 202 224 225
f 223 224 202 200
f 223 221 199 201
f 221 222 197 199
f 222 220 195 197
f 193 195 220 219
f 187 189 217
f 191 193 219 218
f 185 187 184
f 218 217 189 191
f 200 198 221 223
f 196 194 220 222
f 198 196 222 221
f 194 192 219 220
f 192 190 218 219
f 217 186 187
f 217 218 190 188
f 187 186 184
f 217 188 186
f 184 186 183
f 179 181 182
f 178 182 180
f 182 178 179
f 175 177 176 174
f 171 173 172
f 170 172 173
f 171 169 173
f 153 154 148
f 148 154 147
f 151 168 150
f 131 153 148
f 168 151 132
f 152 131 151
f 132 151 131
f 131 152 153
f 157 144 156
f 146 155 145
f 156 145 155
f 156 144 145
f 141 142 159
f 157 143 144
f 143 157 158
f 142 158 159
f 158 142 143
f 149 134 166
f 150 167 133
f 168 167 150
f 134 149 150
f 166 135 165
f 150 133 134
f 135 166 134
f 164 165 136
f 135 136 165
f 140 161 139
f 160 141 159
f 140 160 161
f 161 162 139
f 160 140 141
f 162 138 139
f 136 137 164
f 138 163 137
f 164 137 163
f 162 163 138
f 116 115 110
f 113 94 93
f 110 115 93
f 110 109 116
f 115 114 93
f 113 130 94
f 113 112 129
f 130 113 129
f 93 114 113
f 118 117 107
f 117 108 107
f 104 120 105
f 118 107 106
f 106 119 118
f 105 120 119
f 119 106 105
f 97 96 128
f 129 112 95
f 111 96 112
f 95 112 96
f 96 111 128
f 128 127 97
f 126 98 127
f 97 127 98
f 125 99 126
f 98 126 99
f 103 102 122
f 121 120 104
f 103 122 121
f 122 102 123
f 121 104 103
f 123 102 101
f 99 125 100
f 101 100 124
f 125 124 100
f 123 101 124
f 79 80 78 77
f 89 90 88 87
f 91 92 90 89
f 83 84 82 81
f 85 86 84 83
f 81 82 80 79
f 77 78 76 75
f 69 70 68 67
f 73 74 72 71
f 75 76 74 73
f 71 72 70 69
f 65 66 64 63
f 67 68 66 65
f 63 64 62 61
f 57 58 59
f 56 60 58
f 58 60 59
f 57 59 55
f 54 52 53
f 47 51 49
f 48 50 46
f 47 46 50 51
f 361 482 480
f 361 388 482
f 469 471 387
f 387 359 469
f 482 360 486
f 360 482 388
f 358 387 471
f 358 471 475
f 468 338 331
f 470 338 468
f 466 468 331
f 479 477 330
f 479 330 339
f 339 481 479
f 300 474 293
f 476 474 300
f 483 485 292
f 474 472 293
f 485 301 292
f 487 301 485
f 270 484 269
f 270 478 484
f 473 272 271
f 473 467 272
f 498 496 497
f 496 498 495
f 495 498 499
f 500 499 498
f 498 501 500
f 491 489 488
f 492 491 488
f 489 491 490
f 493 494 491
f 491 492 493
f 41 43 44
f 37 40 38
f 33 45 34
f 34 45 36
f 45 33 35
f 25 27 28 26
f 41 42 43
f 38 40 39
f 29 31 32 30
f 514 610 612 609
f 610 508 611 612
f 610 514 515
f 509 508 610
f 515 509 610
f 516 510 509 515
f 689 511 510
f 516 517 689
f 510 516 689
f 690 688 511 689
f 687 690 689 517
f 521 515 514 520
f 522 516 515 521
f 523 517 516 522
f 526 614 616 613
f 614 520 615 616
f 614 526 527
f 521 520 614
f 527 521 614
f 528 522 521 527
f 685 523 522
f 528 529 685
f 522 528 685
f 686 684 523 685
f 681 686 685 529
f 532 618 619 617
f 618 526 613 619
f 618 532 533
f 527 526 618
f 533 527 618
f 534 528 527 533
f 682 529 528
f 534 535 682
f 528 534 682
f 683 681 529 682
f 678 683 682 535
f 538 621 622 620
f 621 532 617 622
f 621 538 539
f 533 532 621
f 539 533 621
f 540 534 533 539
f 679 535 534
f 540 541 679
f 534 540 679
f 680 678 535 679
f 677 680 679 541
f 545 539 538 544
f 546 540 539 545
f 547 541 540 546
f 550 624 626 623
f 624 544 625 626
f 624 550 551
f 545 544 624
f 551 545 624
f 552 546 545 551
f 675 547 546
f 552 553 675
f 546 552 675
f 676 674 547 675
f 671 676 675 553
f 556 628 629 627
f 628 550 623 629
f 628 556 557
f 551 550 628
f 557 551 628
f 558 552 551 557
f 672 553 552
f 558 559 672
f 552 558 672
f 673 671 553 672
f 668 673 672 559
f 562 631 632 630
f 631 556 627 632
f 631 562 563
f 557 556 631
f 563 557 631
f 564 558 557 563
f 669 559 558
f 564 565 669
f 558 564 669
f 670 668 559 669
f 667 670 669 565
f 569 563 562 568
f 570 564 563 569
f 571 565 564 570
f 574 634 636 633
f 634 568 635 636
f 634 574 575
f 569 568 634
f 575 569 634
f 576 570 569 575
f 665 571 570
f 576 577 665
f 570 576 665
f 666 664 571 665
f 661 666 665 577
f 580 638 639 637
f 638 574 633 639
f 638 580 581
f 575 574 638
f 581 575 638
f 582 576 575 581
f 662 577 576
f 582 583 662
f 576 582 662
f 663 661 577 662
f 658 663 662 583
f 586 641 642 640
f 641 580 637 642
f 641 586 587
f 581 580 641
f 587 581 641
f 588 582 581 587
f 659 583 582
f 588 589 659
f 582 588 659
f 660 658 583 659
f 657 660 659 589
f 593 587 586 592
f 594 588 587 593
f 595 589 588 594
f 598 644 646 643
f 644 592 645 646
f 644 598 599
f 593 592 644
f 599 593 644
f 600 594 593 599
f 655 595 594
f 600 601 655
f 594 600 655
f 656 654 595 655
f 651 656 655 601
f 604 648 649 647
f 648 598 643 649
f 648 604 605
f 599 598 648
f 605 599 648
f 606 600 599 605
f 652 601 600
f 606 607 652
f 600 606 652
f 653 651 601 652
f 650 653 652 607
f 611 507 612
f 513 612 507
f 609 612 513
f 519 615 609 513
f 519 525 616 615
f 514 609 615 520
f 525 613 616
f 619 613 525
f 619 525 531
f 617 531 622
f 531 537 620 622
f 619 531 617
f 549 626 543
f 543 625 620 537
f 549 555 627 629
f 538 620 625 544
f 549 623 626
f 629 623 549
f 626 625 543
f 627 555 632
f 512 688 690
f 523 684 687 517
f 684 524 518 687
f 518 690 687
f 518 512 690
f 530 686 681
f 536 530 683
f 681 683 530
f 530 524 684 686
f 536 678 680
f 677 541 547 674
f 674 548 542 677
f 542 680 677
f 542 536 680
f 554 676 671
f 560 554 673 668
f 671 673 554
f 548 676 554
f 674 676 548
f 683 678 536
f 630 632 561
f 555 561 632
f 630 561 567 635
f 567 573 633 636
f 579 639 573
f 562 630 635 568
f 639 633 573
f 636 635 567
f 637 639 579
f 637 579 642
f 585 642 579
f 640 642 585
f 591 645 640 585
f 603 649 597
f 646 591 597
f 645 592 586 640
f 597 643 646
f 603 647 649
f 649 643 597
f 646 645 591
f 560 668 670
f 566 670 667
f 572 664 666
f 571 664 667 565
f 664 572 566 667
f 566 560 670
f 578 661 663
f 658 584 663
f 578 663 584
f 578 572 666 661
f 658 660 584
f 657 589 595 654
f 590 660 657
f 602 656 651
f 596 654 656
f 654 596 590 657
f 590 584 660
f 608 653 650
f 653 608 602
f 656 602 596
f 653 602 651
f 693 692 691
f 700 691 705
f 691 700 693
f 705 691 706
f 705 704 703
f 703 702 705
f 694 693 700
f 697 696 695
f 694 700 697
f 698 697 699
f 700 702 701
f 700 705 702
f 700 699 697
f 697 695 694
f 709 707 708
f 716 721 707
f 707 709 716
f 721 722 707
f 721 719 720
f 719 721 718
f 710 716 709
f 713 711 712
f 710 713 716
f 714 715 713
f 716 717 718
f 716 718 721
f 716 713 715
f 713 710 711
f 730 825 828 826
f 826 828 827 724
f 826 731 730
f 725 826 724
f 731 826 725
f 732 731 725 726
f 905 726 727
f 732 905 733
f 726 905 732
f 906 905 727 904
f 903 733 905 906
f 737 736 730 731
f 738 737 731 732
f 739 738 732 733
f 742 829 832 830
f 830 832 831 736
f 830 743 742
f 737 830 736
f 743 830 737
f 744 743 737 738
f 901 738 739
f 744 901 745
f 738 901 744
f 902 901 739 900
f 897 745 901 902
f 748 833 835 834
f 834 835 829 742
f 834 749 748
f 743 834 742
f 749 834 743
f 750 749 743 744
f 898 744 745
f 750 898 751
f 744 898 750
f 899 898 745 897
f 894 751 898 899
f 754 836 838 837
f 837 838 833 748
f 837 755 754
f 749 837 748
f 755 837 749
f 756 755 749 750
f 895 750 751
f 756 895 757
f 750 895 756
f 896 895 751 894
f 893 757 895 896
f 761 760 754 755
f 762 761 755 756
f 763 762 756 757
f 766 839 842 840
f 840 842 841 760
f 840 767 766
f 761 840 760
f 767 840 761
f 768 767 761 762
f 891 762 763
f 768 891 769
f 762 891 768
f 892 891 763 890
f 887 769 891 892
f 772 843 845 844
f 844 845 839 766
f 844 773 772
f 767 844 766
f 773 844 767
f 774 773 767 768
f 888 768 769
f 774 888 775
f 768 888 774
f 889 888 769 887
f 884 775 888 889
f 778 846 848 847
f 847 848 843 772
f 847 779 778
f 773 847 772
f 779 847 773
f 780 779 773 774
f 885 774 775
f 780 885 781
f 774 885 780
f 886 885 775 884
f 883 781 885 886
f 785 784 778 779
f 786 785 779 780
f 787 786 780 781
f 790 849 852 850
f 850 852 851 784
f 850 791 790
f 785 850 784
f 791 850 785
f 792 791 785 786
f 881 786 787
f 792 881 793
f 786 881 792
f 882 881 787 880
f 877 793 881 882
f 796 853 855 854
f 854 855 849 790
f 854 797 796
f 791 854 790
f 797 854 791
f 798 797 791 792
f 878 792 793
f 798 878 799
f 792 878 798
f 879 878 793 877
f 874 799 878 879
f 802 856 858 857
f 857 858 853 796
f 857 803 802
f 797 857 796
f 803 857 797
f 804 803 797 798
f 875 798 799
f 804 875 805
f 798 875 804
f 876 875 799 874
f 873 805 875 876
f 809 808 802 803
f 810 809 803 804
f 811 810 804 805
f 814 859 862 860
f 860 862 861 808
f 860 815 814
f 809 860 808
f 815 860 809
f 816 815 809 810
f 871 810 811
f 816 871 817
f 810 871 816
f 872 871 811 870
f 867 817 871 872
f 820 863 865 864
f 864 865 859 814
f 864 821 820
f 815 864 814
f 821 864 815
f 822 821 815 816
f 868 816 817
f 822 868 823
f 816 868 822
f 869 868 817 867
f 866 823 868 869
f 827 828 723
f 723 828 825 729
f 735 729 825 831
f 735 831 832 741
f 730 736 831 825
f 741 832 829
f 835 741 829
f 835 747 741
f 833 838 747
f 753 747 838
f 835 833 747
f 836 753 838
f 765 759 842
f 759 753 836 841
f 765 839 845 771
f 754 760 841 836
f 765 842 839
f 771 845 843
f 842 759 841
f 843 848 771
f 728 906 904
f 739 733 903 900
f 900 903 734 740
f 734 903 906
f 734 906 728
f 746 897 902
f 752 899 746
f 897 746 899
f 746 902 900 740
f 752 896 894
f 893 890 763 757
f 890 893 758 764
f 758 893 896
f 758 896 752
f 770 887 892
f 776 889 887 770
f 764 770 892
f 890 764 892
f 899 752 894
f 846 777 848
f 771 848 777
f 846 851 783 777
f 789 783 852
f 795 789 855
f 778 784 851 846
f 789 852 849
f 855 789 849
f 852 783 851
f 853 795 855
f 853 858 795
f 801 795 858
f 856 801 858
f 807 801 856 861
f 819 813 865
f 862 813 807
f 861 856 802 808
f 813 862 859
f 819 865 863
f 865 813 859
f 862 807 861
f 776 886 884
f 782 883 886
f 788 882 880
f 787 781 883 880
f 880 883 782 788
f 782 886 776
f 794 879 877
f 874 879 800
f 794 800 879
f 882 788 794
f 877 882 794
f 889 776 884
f 874 800 876
f 873 870 811 805
f 806 873 876
f 818 867 872
f 812 872 870
f 870 873 806 812
f 806 876 800
f 824 866 869
f 869 818 824
f 872 812 818
f 869 867 818
f 909 907 908
f 909 912 907
f 912 909 910
f 917 921 922
f 922 907 917
f 920 921 919
f 911 912 910
f 914 912 913
f 916 912 914
f 915 916 914
f 919 921 918
f 917 918 921
f 912 916 917
f 917 907 912
f 925 924 923
f 925 923 928
f 928 926 925
f 933 938 937
f 938 933 923
f 936 935 937
f 927 926 928
f 930 929 928
f 932 930 928
f 931 930 932
f 935 934 937
f 933 937 934
f 928 933 932
f 933 928 923
