# OBJ
# COMPAS
# version: 2.1.1
# precision: 3
# V F E: 44 84 126

o Mesh 0
v 0.082 0.017 -0.009
v 0.152 -0.022 -0.051
v 0.101 -0.038 -0.028
v 0.043 -0.065 -0.073
v 0.118 -0.054 -0.082
v 0.008 -0.006 -0.099
v 0.057 0.005 0.043
v 0.061 -0.053 0.036
v 0.023 -0.053 0.039
v 0.069 -0.039 0.003
v 0.043 -0.067 0.002
v -0.015 0.042 0.069
v 0.015 0.009 0.060
v 0.005 0.074 0.040
v 0.036 0.074 -0.035
v 0.072 0.058 -0.027
v 0.130 -0.017 -0.089
v 0.155 -0.042 -0.067
v 0.113 0.014 -0.029
v 0.096 -0.066 -0.074
v 0.088 -0.015 -0.086
v -0.024 0.056 -0.103
v 0.047 0.033 -0.079
v -0.074 0.079 -0.072
v -0.092 0.046 -0.087
v -0.068 -0.036 -0.075
v -0.146 -0.031 -0.088
v -0.148 0.048 -0.066
v -0.033 0.079 0.041
v -0.024 -0.079 -0.023
v -0.140 -0.046 -0.039
v -0.022 -0.034 -0.076
v -0.058 -0.012 0.083
v -0.091 0.038 0.081
v -0.118 0.075 0.007
v -0.134 0.058 0.026
v -0.021 -0.032 0.060
v -0.041 -0.058 0.023
v -0.064 -0.034 0.050
v -0.121 0.006 0.103
v -0.116 -0.046 0.043
v -0.132 -0.029 0.037
v -0.155 0.032 -0.060
v -0.149 -0.022 -0.067
f 1 3 2
f 7 1 16
f 10 1 7
f 19 1 2
f 3 1 10
f 1 19 16
f 2 18 17
f 19 2 17
f 18 2 3
f 21 16 19
f 19 17 21
f 23 15 16
f 15 7 16
f 16 21 23
f 6 21 5
f 21 17 5
f 23 21 6
f 17 18 5
f 18 3 20
f 18 20 5
f 4 6 5
f 5 20 4
f 6 32 22
f 32 6 4
f 22 23 6
f 15 23 22
f 24 22 25
f 25 22 26
f 32 26 22
f 15 22 24
f 30 32 4
f 32 30 26
f 11 30 4
f 4 20 11
f 3 11 20
f 10 11 3
f 8 11 10
f 9 30 11
f 11 8 9
f 38 30 9
f 26 30 31
f 30 38 31
f 27 25 26
f 31 27 26
f 31 41 42
f 27 31 44
f 41 31 38
f 44 31 42
f 37 39 38
f 38 39 41
f 38 9 37
f 40 42 41
f 41 33 40
f 41 39 33
f 40 44 42
f 27 44 43
f 44 36 43
f 44 40 36
f 40 12 34
f 33 12 40
f 36 40 34
f 12 33 13
f 33 37 13
f 37 33 39
f 12 13 7
f 14 29 12
f 34 12 29
f 14 12 7
f 36 34 35
f 35 34 29
f 28 36 35
f 36 28 43
f 27 43 28
f 24 25 28
f 28 25 27
f 35 24 28
f 35 29 24
f 15 29 14
f 24 29 15
f 7 15 14
f 7 9 8
f 7 37 9
f 13 37 7
f 10 7 8
