# OBJ
# COMPAS
# version: 2.1.1
# precision: 3
# V F E: 44 84 126

o Mesh 0
v -0.072 -0.017 -0.020
v -0.148 0.022 0.009
v -0.093 0.038 -0.005
v -0.044 0.065 0.049
v -0.119 0.054 0.046
v -0.014 0.006 0.081
v -0.039 -0.005 -0.068
v -0.043 0.053 -0.061
v -0.006 0.053 -0.057
v -0.057 0.039 -0.030
v -0.032 0.067 -0.025
v 0.036 -0.042 -0.080
v 0.006 -0.009 -0.077
v 0.012 -0.074 -0.055
v -0.031 -0.074 0.013
v -0.065 -0.058 -0.001
v -0.133 0.017 0.051
v -0.154 0.042 0.025
v -0.106 -0.014 -0.005
v -0.096 0.066 0.042
v -0.091 0.015 0.055
v 0.017 -0.056 0.090
v -0.049 -0.033 0.055
v 0.071 -0.079 0.068
v 0.087 -0.046 0.086
v 0.066 0.036 0.070
v 0.139 0.031 0.096
v 0.145 -0.048 0.074
v 0.050 -0.079 -0.050
v 0.031 0.079 0.012
v 0.142 0.046 0.047
v 0.020 0.034 0.063
v 0.082 0.012 -0.088
v 0.114 -0.038 -0.080
v 0.128 -0.075 -0.003
v 0.147 -0.058 -0.019
v 0.041 0.032 -0.071
v 0.055 0.058 -0.031
v 0.082 0.034 -0.054
v 0.147 -0.006 -0.096
v 0.132 0.046 -0.038
v 0.147 0.029 -0.029
v 0.154 -0.032 0.070
v 0.147 0.022 0.075
f 1 2 3
f 7 16 1
f 10 7 1
f 19 2 1
f 3 10 1
f 1 16 19
f 2 17 18
f 19 17 2
f 18 3 2
f 21 19 16
f 19 21 17
f 23 16 15
f 15 16 7
f 16 23 21
f 6 5 21
f 21 5 17
f 23 6 21
f 17 5 18
f 18 20 3
f 18 5 20
f 4 5 6
f 5 4 20
f 6 22 32
f 32 4 6
f 22 6 23
f 15 22 23
f 24 25 22
f 25 26 22
f 32 22 26
f 15 24 22
f 30 4 32
f 32 26 30
f 11 4 30
f 4 11 20
f 3 20 11
f 10 3 11
f 8 10 11
f 9 11 30
f 11 9 8
f 38 9 30
f 26 31 30
f 30 31 38
f 27 26 25
f 31 26 27
f 31 42 41
f 27 44 31
f 41 38 31
f 44 42 31
f 37 38 39
f 38 41 39
f 38 37 9
f 40 41 42
f 41 40 33
f 41 33 39
f 40 42 44
f 27 43 44
f 44 43 36
f 44 36 40
f 40 34 12
f 33 40 12
f 36 34 40
f 12 13 33
f 33 13 37
f 37 39 33
f 12 7 13
f 14 12 29
f 34 29 12
f 14 7 12
f 36 35 34
f 35 29 34
f 28 35 36
f 36 43 28
f 27 28 43
f 24 28 25
f 28 27 25
f 35 28 24
f 35 24 29
f 15 14 29
f 24 15 29
f 7 14 15
f 7 8 9
f 7 9 37
f 13 7 37
f 10 8 7
